<?xml version="1.0" encoding="UTF-8"?>
<!DOCTYPE svg PUBLIC "-//W3C//DTD SVG 1.1//EN" "http://www.w3.org/Graphics/SVG/1.1/DTD/svg11.dtd">
<svg xmlns="http://www.w3.org/2000/svg" version="1.1" width="640px" height="189px" style="shape-rendering:geometricPrecision; text-rendering:geometricPrecision; image-rendering:optimizeQuality; fill-rule:evenodd; clip-rule:evenodd" xmlns:xlink="http://www.w3.org/1999/xlink">
<g><path style="opacity:0.977" fill="#002f87" d="M 115.5,19.5 C 118.998,23.1806 121.998,27.1806 124.5,31.5C 124.328,32.4916 124.662,33.1583 125.5,33.5C 125.802,36.3725 126.469,39.0392 127.5,41.5C 127.5,43.1667 127.5,44.8333 127.5,46.5C 126.833,48.5 126.167,50.5 125.5,52.5C 125.768,49.8806 125.435,47.3806 124.5,45C 121.226,43.7977 117.893,42.7977 114.5,42C 98.5,41.3333 82.5,41.3333 66.5,42C 65.2986,42.9025 64.4652,44.0692 64,45.5C 61.6203,58.4157 59.7869,71.4157 58.5,84.5C 58.5108,86.0451 58.8442,87.3784 59.5,88.5C 58.828,89.2674 57.9947,89.9341 57,90.5C 55.5478,105.714 53.0478,120.714 49.5,135.5C 39.8276,135.666 30.1609,135.5 20.5,135C 19.4272,133.687 18.7605,132.187 18.5,130.5C 20.6603,119.546 22.1603,108.546 23,97.5C 22.6667,99.5 22.3333,101.5 22,103.5C 23.1235,89.4196 25.1235,75.4196 28,61.5C 28.3333,63.5 28.6667,65.5 29,67.5C 30.4993,62.5218 30.6659,57.5218 29.5,52.5C 29.6667,51.5 29.8333,50.5 30,49.5C 30.3333,51.1667 30.6667,52.8333 31,54.5C 32.6727,41.1183 34.6727,27.7849 37,14.5C 37.4652,13.0692 38.2986,11.9025 39.5,11C 39.1667,10.6667 38.8333,10.3333 38.5,10C 58.0173,8.34743 77.684,8.01409 97.5,9C 101.385,9.73944 105.052,11.0728 108.5,13C 110.05,16.0513 112.383,18.218 115.5,19.5 Z"/></g>
<g><path style="opacity:0.004" fill="#0000ff" d="M 35.5,12.5 C 36.8333,13.1667 36.8333,13.1667 35.5,12.5 Z"/></g>
<g><path style="opacity:0.004" fill="#200cc6" d="M 34.5,14.5 C 35.5983,15.6009 35.765,16.9343 35,18.5C 34.51,17.2068 34.3433,15.8734 34.5,14.5 Z"/></g>
<g><path style="opacity:0.004" fill="#000000" d="M 115.5,18.5 C 116.833,19.1667 116.833,19.1667 115.5,18.5 Z"/></g>
<g><path style="opacity:0.004" fill="#000000" d="M 33.5,21.5 C 34.5735,22.2506 34.7401,23.2506 34,24.5C 33.5172,23.552 33.3505,22.552 33.5,21.5 Z"/></g>
<g><path style="opacity:0.012" fill="#124188" d="M 125.5,33.5 C 125.672,32.5084 125.338,31.8417 124.5,31.5C 124.393,29.6214 124.893,29.2881 126,30.5C 126.74,31.7494 126.573,32.7494 125.5,33.5 Z"/></g>
<g><path style="opacity:0.004" fill="#040aff" d="M 431.5,40.5 C 431.167,40.5 430.833,40.5 430.5,40.5C 429.833,40.5 429.5,40.8333 429.5,41.5C 429.167,41.5 428.833,41.5 428.5,41.5C 428.062,41.5654 427.728,41.3988 427.5,41C 428.328,40.0853 429.328,39.4186 430.5,39C 441.833,38.3333 453.167,38.3333 464.5,39C 453.326,39.1695 442.326,39.6695 431.5,40.5 Z"/></g>
<g><path style="opacity:0.004" fill="#0711ff" d="M 600.5,39.5 C 594.642,39.1778 588.975,39.5111 583.5,40.5C 583.167,40.5 582.833,40.5 582.5,40.5C 582.167,40.5 581.833,40.5 581.5,40.5C 581.611,39.8826 581.944,39.3826 582.5,39C 588.681,38.1808 594.681,38.3475 600.5,39.5 Z"/></g>
<g><path style="opacity:0.02" fill="#1e209f" d="M 245.5,40.5 C 232.184,39.7847 218.85,39.2847 205.5,39C 217.167,38.3333 228.833,38.3333 240.5,39C 242.382,39.1981 244.048,39.6981 245.5,40.5 Z"/></g>
<g><path style="opacity:1" fill="#001c65" d="M 125.5,52.5 C 120.789,72.7131 108.122,84.5464 87.5,88C 78.1726,88.4998 68.8393,88.6665 59.5,88.5C 58.8442,87.3784 58.5108,86.0451 58.5,84.5C 59.7869,71.4157 61.6203,58.4157 64,45.5C 64.4652,44.0692 65.2986,42.9025 66.5,42C 82.5,41.3333 98.5,41.3333 114.5,42C 117.893,42.7977 121.226,43.7977 124.5,45C 125.435,47.3806 125.768,49.8806 125.5,52.5 Z"/></g>
<g><path style="opacity:0.963" fill="#012f87" d="M 245.5,40.5 C 250.884,41.0233 255.218,43.3566 258.5,47.5C 257.167,47.8333 257.167,48.1667 258.5,48.5C 258.5,49.1667 258.833,49.5 259.5,49.5C 259.5,50.1667 259.833,50.5 260.5,50.5C 260.5,51.1667 260.833,51.5 261.5,51.5C 261.5,52.1667 261.833,52.5 262.5,52.5C 263.512,53.8717 264.512,55.205 265.5,56.5C 268.66,64.2467 269.327,72.2467 267.5,80.5C 266.069,81.7804 265.402,83.4471 265.5,85.5C 264.094,85.9731 263.427,86.9731 263.5,88.5C 262.833,88.5 262.5,88.8333 262.5,89.5C 261.662,89.8417 261.328,90.5084 261.5,91.5C 260.833,91.5 260.5,91.8333 260.5,92.5C 259.833,92.5 259.5,92.8333 259.5,93.5C 258.833,93.5 258.5,93.8333 258.5,94.5C 257.833,94.5 257.5,94.8333 257.5,95.5C 256.833,95.5 256.5,95.8333 256.5,96.5C 255.833,96.5 255.5,96.8333 255.5,97.5C 254.833,97.5 254.5,97.8333 254.5,98.5C 252.973,98.427 251.973,99.0937 251.5,100.5C 247.326,101.905 243.992,103.571 241.5,105.5C 239.833,104.167 238.167,104.167 236.5,105.5C 212.5,105.833 212.5,106.167 236.5,106.5C 230.355,107.49 224.022,107.823 217.5,107.5C 217.169,113.804 216.669,113.47 216,106.5C 215.172,110.466 214.672,114.466 214.5,118.5C 213.539,120.265 213.205,122.265 213.5,124.5C 212.665,127.943 211.665,131.443 210.5,135C 203.833,135.667 197.167,135.667 190.5,135C 189.956,134.283 189.289,133.783 188.5,133.5C 189.159,130.545 189.492,127.545 189.5,124.5C 190.461,122.735 190.795,120.735 190.5,118.5C 191.461,116.735 191.795,114.735 191.5,112.5C 192.833,110.167 192.833,107.833 191.5,105.5C 193.232,91.7749 195.399,78.1082 198,64.5C 199.008,69.5409 199.508,69.2076 199.5,63.5C 200.721,56.4092 202.054,49.2425 203.5,42C 217.595,40.6122 231.595,40.1122 245.5,40.5 Z M 238.5,64.5 C 239.209,65.404 240.209,65.7373 241.5,65.5C 244.081,70.1316 244.081,74.7983 241.5,79.5C 239.973,79.427 238.973,80.0937 238.5,81.5C 237.209,81.2627 236.209,81.596 235.5,82.5C 230.833,82.5 226.167,82.5 221.5,82.5C 220.995,79.1589 220.828,75.8255 221,72.5C 222.008,77.5409 222.508,77.2076 222.5,71.5C 223.461,69.7354 223.795,67.7354 223.5,65.5C 228.405,64.5546 233.405,64.2213 238.5,64.5 Z M 235.5,83.5 C 230.36,84.4881 225.026,84.8214 219.5,84.5C 219.338,82.4727 219.505,80.4727 220,78.5C 220.494,80.1341 220.66,81.8008 220.5,83.5C 225.5,83.5 230.5,83.5 235.5,83.5 Z"/></g>
<g><path style="opacity:0.004" fill="#0000ff" d="M 604.5,42.5 C 605.613,43.9464 605.78,45.6131 605,47.5C 604.506,45.8659 604.34,44.1992 604.5,42.5 Z"/></g>
<g><path style="opacity:0.979" fill="#046fdf" d="M 430.5,40.5 C 430.833,40.5 431.167,40.5 431.5,40.5C 445.216,40.6646 458.883,40.6646 472.5,40.5C 478.906,42.3524 483.572,45.6858 486.5,50.5C 488.172,53.0216 489.672,55.6882 491,58.5C 491.333,57.8333 491.667,57.1667 492,56.5C 495.733,63.8933 496.399,71.56 494,79.5C 493.667,78.1667 493.333,76.8333 493,75.5C 492.338,77.8127 491.838,80.146 491.5,82.5C 490.662,82.8417 490.328,83.5084 490.5,84.5C 488.761,87.6351 486.761,90.6351 484.5,93.5C 483.833,93.5 483.5,93.8333 483.5,94.5C 482.833,94.5 482.5,94.8333 482.5,95.5C 481.833,95.5 481.5,95.8333 481.5,96.5C 480.833,96.5 480.5,96.8333 480.5,97.5C 479.833,97.5 479.5,97.8333 479.5,98.5C 478.167,98.8333 478.167,99.1667 479.5,99.5C 478.745,101.466 477.579,101.8 476,100.5C 473.345,102.053 470.512,103.22 467.5,104C 468.696,104.654 468.696,105.154 467.5,105.5C 465.902,104.515 464.235,104.349 462.5,105C 466.5,105.667 466.5,106.333 462.5,107C 455.842,107.5 449.175,107.666 442.5,107.5C 442.737,108.791 442.404,109.791 441.5,110.5C 441.167,103.833 440.833,103.833 440.5,110.5C 439.539,112.265 439.205,114.265 439.5,116.5C 438.616,122.688 437.282,128.855 435.5,135C 428.833,135.667 422.167,135.667 415.5,135C 414.726,132.595 414.226,130.095 414,127.5C 413.667,129.833 413.333,132.167 413,134.5C 413.681,122.075 415.347,109.741 418,97.5C 418.333,98.8333 418.667,100.167 419,101.5C 420.944,88.1735 422.777,74.8402 424.5,61.5C 426.033,54.9903 427.366,48.3236 428.5,41.5C 428.833,41.5 429.167,41.5 429.5,41.5C 430.167,41.5 430.5,41.1667 430.5,40.5 Z M 469.5,76.5 C 469.672,77.4916 469.338,78.1583 468.5,78.5C 467.242,77.9836 466.242,78.6503 465.5,80.5C 463.847,80.6596 462.514,81.3263 461.5,82.5C 456.489,82.6659 451.489,82.4993 446.5,82C 447.815,76.2527 448.815,70.4194 449.5,64.5C 453.846,64.3343 458.179,64.501 462.5,65C 464.676,65.1629 466.509,65.9963 468,67.5C 468.333,66.8333 468.667,66.1667 469,65.5C 470.7,69.2287 470.867,72.8954 469.5,76.5 Z"/></g>
<g><path style="opacity:0.958" fill="#0270e0" d="M 600.5,39.5 C 602.379,39.3932 602.712,39.8932 601.5,41C 602.894,41.956 603.561,43.2894 603.5,45C 602.173,52.1323 601.173,59.299 600.5,66.5C 599.539,68.2646 599.205,70.2646 599.5,72.5C 598.539,74.2646 598.205,76.2646 598.5,78.5C 597.167,80.8333 597.167,83.1667 598.5,85.5C 596.768,99.2245 594.602,112.891 592,126.5C 591.667,124.833 591.333,123.167 591,121.5C 590.38,125.888 589.547,130.222 588.5,134.5C 581.858,135.664 575.192,135.831 568.5,135C 567.638,132.266 566.805,132.099 566,134.5C 565.308,133.975 564.808,133.308 564.5,132.5C 565.897,125.889 567.064,119.223 568,112.5C 568.333,114.5 568.667,116.5 569,118.5C 572.698,91.9952 576.865,65.9952 581.5,40.5C 581.833,40.5 582.167,40.5 582.5,40.5C 582.833,41.8333 583.167,41.8333 583.5,40.5C 589.358,40.8222 595.025,40.4889 600.5,39.5 Z"/></g>
<g><path style="opacity:0.004" fill="#122735" d="M 258.5,48.5 C 258.5,48.1667 258.5,47.8333 258.5,47.5C 259.833,47.5 260.5,48.1667 260.5,49.5C 260.167,49.5 259.833,49.5 259.5,49.5C 258.833,49.5 258.5,49.1667 258.5,48.5 Z"/></g>
<g><path style="opacity:0.99" fill="#016fdf" d="M 144.5,65.5 C 144.263,66.791 144.596,67.791 145.5,68.5C 146.725,74.1594 146.725,79.826 145.5,85.5C 144.596,86.209 144.263,87.209 144.5,88.5C 143.596,89.209 143.263,90.209 143.5,91.5C 142.662,91.8417 142.328,92.5084 142.5,93.5C 141.662,93.8417 141.328,94.5084 141.5,95.5C 140.167,96.1667 140.167,96.8333 141.5,97.5C 141.573,99.0269 140.906,100.027 139.5,100.5C 139.167,99.1667 138.833,99.1667 138.5,100.5C 137.167,100.833 137.167,101.167 138.5,101.5C 138.607,103.379 138.107,103.712 137,102.5C 135.624,103.705 134.458,105.038 133.5,106.5C 132.833,106.5 132.5,106.833 132.5,107.5C 131.833,107.5 131.5,107.833 131.5,108.5C 130.833,108.5 130.5,108.833 130.5,109.5C 129.833,109.5 129.5,109.833 129.5,110.5C 128.167,110.833 128.167,111.167 129.5,111.5C 127.025,114.241 124.025,116.241 120.5,117.5C 120.265,116.903 119.765,116.57 119,116.5C 116.632,117.717 114.132,118.551 111.5,119C 103.588,119.183 95.7543,119.683 88,120.5C 86.984,119.366 86.3173,119.699 86,121.5C 85.6667,121.167 85.3333,120.833 85,120.5C 82.5066,134.46 80.3399,148.46 78.5,162.5C 77.6618,162.842 77.3284,163.508 77.5,164.5C 76.5,164.833 75.8333,165.5 75.5,166.5C 66.1667,166.5 56.8333,166.5 47.5,166.5C 46.719,164.678 45.5523,164.011 44,164.5C 44.1217,156.427 45.1217,148.427 47,140.5C 47.3333,141.833 47.6667,143.167 48,144.5C 48.696,141.522 49.196,138.522 49.5,135.5C 53.0478,120.714 55.5478,105.714 57,90.5C 57.9947,89.9341 58.828,89.2674 59.5,88.5C 68.8393,88.6665 78.1726,88.4998 87.5,88C 108.122,84.5464 120.789,72.7131 125.5,52.5C 126.167,50.5 126.833,48.5 127.5,46.5C 128.833,44.8333 128.833,43.1667 127.5,41.5C 127.34,39.8008 127.506,38.1341 128,36.5C 128.711,39.734 129.545,42.9006 130.5,46C 129.346,46.9138 129.513,47.7471 131,48.5C 133.317,49.7596 135.651,51.7596 138,54.5C 138.667,53.1667 139.333,53.1667 140,54.5C 140.617,55.4491 140.451,56.2825 139.5,57C 140.552,58.1192 141.719,58.6192 143,58.5C 142.266,61.0539 142.766,63.3872 144.5,65.5 Z"/></g>
<g><path style="opacity:0.004" fill="#171545" d="M 260.5,50.5 C 260.5,50.1667 260.5,49.8333 260.5,49.5C 263.051,49.6682 263.718,50.6682 262.5,52.5C 261.833,52.5 261.5,52.1667 261.5,51.5C 260.833,51.5 260.5,51.1667 260.5,50.5 Z"/></g>
<g><path style="opacity:0.004" fill="#000000" d="M 486.5,49.5 C 487.833,50.1667 487.833,50.1667 486.5,49.5 Z"/></g>
<g><path style="opacity:0.004" fill="#4665f4" d="M 603.5,48.5 C 604.622,50.2884 604.789,52.2884 604,54.5C 603.505,52.5273 603.338,50.5273 603.5,48.5 Z"/></g>
<g><path style="opacity:0.004" fill="#1f0f4f" d="M 266.5,56.5 C 266.167,56.5 265.833,56.5 265.5,56.5C 265.833,53.8333 266.167,53.8333 266.5,56.5 Z"/></g>
<g><path style="opacity:0.004" fill="#0000ff" d="M 266.5,56.5 C 267.833,57.1667 267.833,57.1667 266.5,56.5 Z"/></g>
<g><path style="opacity:0.004" fill="#000000" d="M 267.5,58.5 C 268.833,59.1667 268.833,59.1667 267.5,58.5 Z"/></g>
<g><path style="opacity:0.012" fill="#1e66cc" d="M 424.5,61.5 C 424.167,61.5 423.833,61.5 423.5,61.5C 423.833,53.5 424.167,53.5 424.5,61.5 Z"/></g>
<g><path style="opacity:0.004" fill="#1f0c98" d="M 199.5,63.5 C 198.387,62.0536 198.22,60.3869 199,58.5C 199.494,60.1341 199.66,61.8008 199.5,63.5 Z"/></g>
<g><path style="opacity:0.004" fill="#000000" d="M 268.5,61.5 C 269.833,62.1667 269.833,62.1667 268.5,61.5 Z"/></g>
<g><path style="opacity:0.004" fill="#000000" d="M 300.5,64.5 C 301.833,65.1667 301.833,65.1667 300.5,64.5 Z"/></g>
<g><path style="opacity:0.008" fill="#446ed1" d="M 423.5,61.5 C 423.66,63.1992 423.494,64.8659 423,66.5C 422.22,64.6131 422.387,62.9464 423.5,61.5 Z"/></g>
<g><path style="opacity:0.012" fill="#2e7acb" d="M 145.5,68.5 C 145.737,67.209 145.404,66.209 144.5,65.5C 144.413,62.4017 144.913,62.0684 146,64.5C 147.25,67.0766 147.584,69.7433 147,72.5C 146.79,70.9419 146.29,69.6085 145.5,68.5 Z"/></g>
<g><path style="opacity:0.004" fill="#200cc6" d="M 298.5,66.5 C 297.127,66.6567 295.793,66.49 294.5,66C 296.066,65.235 297.399,65.4017 298.5,66.5 Z"/></g>
<g><path style="opacity:0.004" fill="#201058" d="M 303.5,66.5 C 304.946,65.3871 306.613,65.2204 308.5,66C 306.866,66.4935 305.199,66.6602 303.5,66.5 Z"/></g>
<g><path style="opacity:0.004" fill="#4453ff" d="M 528.5,66.5 C 529.601,65.4017 530.934,65.235 532.5,66C 531.207,66.49 529.873,66.6567 528.5,66.5 Z"/></g>
<g><path style="opacity:0.964" fill="#012f86" d="M 298.5,66.5 C 300.167,66.5 301.833,66.5 303.5,66.5C 305.556,67.2161 307.723,67.8828 310,68.5C 310.333,68.1667 310.667,67.8333 311,67.5C 313.414,69.2907 315.914,70.9574 318.5,72.5C 319.382,71.2402 320.382,70.0736 321.5,69C 327.859,68.1694 334.193,68.3361 340.5,69.5C 341.189,71.444 341.689,73.444 342,75.5C 342.202,73.7444 342.702,72.0777 343.5,70.5C 344.298,70.9569 344.631,71.6236 344.5,72.5C 342.953,77.7844 341.62,83.1178 340.5,88.5C 340.167,80.5 339.833,80.5 339.5,88.5C 338.337,91.0065 338.337,93.6731 339.5,96.5C 339.333,97.1667 339.167,97.8333 339,98.5C 338.667,97.5 338.333,96.5 338,95.5C 336.265,106.812 334.765,118.146 333.5,129.5C 332.566,130.568 332.232,131.901 332.5,133.5C 331.711,133.783 331.044,134.283 330.5,135C 324.167,135.667 317.833,135.667 311.5,135C 310.809,133.933 310.309,132.766 310,131.5C 309.768,132.737 309.268,133.737 308.5,134.5C 308.44,133.957 308.107,133.624 307.5,133.5C 297.833,137.5 288.167,137.5 278.5,133.5C 277.893,133.624 277.56,133.957 277.5,134.5C 274.968,134.171 273.968,133.005 274.5,131C 271.217,128.228 268.55,125.061 266.5,121.5C 266.672,120.508 266.338,119.842 265.5,119.5C 265.279,116.933 264.612,114.599 263.5,112.5C 263.5,108.167 263.5,103.833 263.5,99.5C 264.833,97.8333 264.833,96.1667 263.5,94.5C 263.737,93.209 263.404,92.209 262.5,91.5C 262.5,90.8333 262.5,90.1667 262.5,89.5C 263.167,89.5 263.5,89.1667 263.5,88.5C 263.833,88.5 264.167,88.5 264.5,88.5C 264.5,89.1667 264.833,89.5 265.5,89.5C 265.833,92.1667 266.167,92.1667 266.5,89.5C 270.527,82.7185 274.86,76.5519 279.5,71C 281.23,69.1476 282.396,69.3143 283,71.5C 287.985,68.8926 293.152,67.226 298.5,66.5 Z M 312.5,94.5 C 313.783,100.049 313.116,105.382 310.5,110.5C 309.5,110.833 308.833,111.5 308.5,112.5C 306.973,112.427 305.973,113.094 305.5,114.5C 304.209,114.263 303.209,114.596 302.5,115.5C 297.449,115.958 292.783,114.958 288.5,112.5C 288.167,111.167 287.833,111.167 287.5,112.5C 283.587,106.53 283.587,100.53 287.5,94.5C 289.129,94.6277 290.462,93.6277 291.5,91.5C 294.348,90.2282 297.348,89.3949 300.5,89C 299.833,88.6667 299.167,88.3333 298.5,88C 301.167,87.3333 303.833,87.3333 306.5,88C 305.167,88.3333 303.833,88.6667 302.5,89C 306.59,89.5435 309.924,91.3768 312.5,94.5 Z"/></g>
<g><path style="opacity:0.004" fill="#000000" d="M 283.5,68.5 C 284.833,69.1667 284.833,69.1667 283.5,68.5 Z"/></g>
<g><path style="opacity:0.004" fill="#0000ff" d="M 421.5,68.5 C 422.598,69.6009 422.765,70.9343 422,72.5C 421.51,71.2068 421.343,69.8734 421.5,68.5 Z"/></g>
<g><path style="opacity:0.004" fill="#000000" d="M 510.5,69.5 C 509.833,68.1667 509.833,68.1667 510.5,69.5 Z"/></g>
<g><path style="opacity:0.96" fill="#002f86" d="M 389.5,79.5 C 390.89,78.1007 391.89,76.4341 392.5,74.5C 393.167,74.5 393.5,74.1667 393.5,73.5C 394.479,72.2347 395.479,70.9014 396.5,69.5C 403.811,68.3354 411.144,68.1687 418.5,69C 419.605,71.1203 419.605,73.2869 418.5,75.5C 417.833,75.5 417.5,75.8333 417.5,76.5C 415.412,78.3356 414.079,80.6689 413.5,83.5C 412.833,83.5 412.5,83.8333 412.5,84.5C 411.167,85.1667 411.167,85.8333 412.5,86.5C 411.66,88.8525 410.326,90.8525 408.5,92.5C 408.167,91.1667 407.833,91.1667 407.5,92.5C 406.662,92.8417 406.328,93.5084 406.5,94.5C 405.167,94.8333 405.167,95.1667 406.5,95.5C 404.05,97.6291 402.383,100.296 401.5,103.5C 400.094,103.973 399.427,104.973 399.5,106.5C 398.662,106.842 398.328,107.508 398.5,108.5C 397.833,108.5 397.5,108.833 397.5,109.5C 396.662,109.842 396.328,110.508 396.5,111.5C 395.833,111.5 395.5,111.833 395.5,112.5C 394.167,113.167 394.167,113.833 395.5,114.5C 395.573,116.027 394.906,117.027 393.5,117.5C 393.167,116.167 392.833,116.167 392.5,117.5C 391.662,117.842 391.328,118.508 391.5,119.5C 390.833,119.5 390.5,119.833 390.5,120.5C 389.662,120.842 389.328,121.508 389.5,122.5C 387.992,124.181 386.992,126.181 386.5,128.5C 385.094,128.973 384.427,129.973 384.5,131.5C 383.662,131.842 383.328,132.508 383.5,133.5C 382.833,133.5 382.5,133.833 382.5,134.5C 381.662,134.842 381.328,135.508 381.5,136.5C 380.833,136.5 380.5,136.833 380.5,137.5C 379.167,138.167 379.167,138.833 380.5,139.5C 380.573,141.027 379.906,142.027 378.5,142.5C 378.167,141.167 377.833,141.167 377.5,142.5C 376.662,142.842 376.328,143.508 376.5,144.5C 375.833,144.5 375.5,144.833 375.5,145.5C 374.662,145.842 374.328,146.508 374.5,147.5C 373.167,147.833 373.167,148.167 374.5,148.5C 374.672,149.492 374.338,150.158 373.5,150.5C 373.167,149.167 372.833,149.167 372.5,150.5C 371.733,151.172 371.066,152.005 370.5,153C 362.323,153.823 354.323,153.656 346.5,152.5C 347.833,151.5 347.833,150.5 346.5,149.5C 347.072,147.745 347.906,146.078 349,144.5C 350,144.167 351,143.833 352,143.5C 354.915,138.002 358.081,132.668 361.5,127.5C 360.518,124.904 359.851,122.238 359.5,119.5C 360.833,118.5 360.833,117.5 359.5,116.5C 359.737,115.209 359.404,114.209 358.5,113.5C 358.405,111.214 357.738,109.214 356.5,107.5C 354.79,100.643 352.79,93.9761 350.5,87.5C 350.737,86.209 350.404,85.209 349.5,84.5C 349.737,83.209 349.404,82.209 348.5,81.5C 348.405,79.2143 347.738,77.2143 346.5,75.5C 346.737,74.209 346.404,73.209 345.5,72.5C 345.511,70.9826 346.177,69.8159 347.5,69C 354.192,68.1691 360.858,68.3358 367.5,69.5C 369.794,75.007 371.627,80.6736 373,86.5C 373.667,82.5 374.333,82.5 375,86.5C 375.576,88.3774 375.409,90.2108 374.5,92C 375.333,94.5 376.167,97 377,99.5C 377.333,98.5 377.667,97.5 378,96.5C 379,96.1667 380,95.8333 381,95.5C 382.646,93.9452 382.979,92.2785 382,90.5C 382.667,91.8333 383.333,91.8333 384,90.5C 385.86,86.7802 387.693,83.1136 389.5,79.5 Z"/></g>
<g><path style="opacity:0.004" fill="#0000ff" d="M 508.5,70.5 C 507.833,69.1667 507.833,69.1667 508.5,70.5 Z"/></g>
<g><path style="opacity:0.982" fill="#036fe0" d="M 528.5,66.5 C 533.252,67.2535 537.752,68.9201 542,71.5C 543,68.8333 544,68.8333 545,71.5C 545.374,70.5838 545.874,69.7504 546.5,69C 552.833,68.3333 559.167,68.3333 565.5,69C 566.167,70 566.833,71 567.5,72C 565.744,78.0384 564.91,84.2051 565,90.5C 565.333,88.8333 565.667,87.1667 566,85.5C 564.731,102.047 562.064,118.38 558,134.5C 548.905,135.603 540.071,135.603 531.5,134.5C 522.513,137.127 513.513,137.127 504.5,134.5C 504.158,133.662 503.492,133.328 502.5,133.5C 502.167,132.167 501.833,132.167 501.5,133.5C 499.456,132.969 497.789,131.802 496.5,130C 496.833,129.667 497.167,129.333 497.5,129C 488.987,120.116 486.154,109.616 489,97.5C 490.229,93.3791 491.729,89.3791 493.5,85.5C 494.401,84.7095 495.068,83.7095 495.5,82.5C 496.167,82.5 496.5,82.1667 496.5,81.5C 499.204,79.045 501.037,76.3783 502,73.5C 502.414,73.9574 502.914,74.2907 503.5,74.5C 505.21,73.1128 506.877,71.7794 508.5,70.5C 509.492,70.6716 510.158,70.3382 510.5,69.5C 514.688,68.6841 519.021,67.8507 523.5,67C 521.833,66.6667 520.167,66.3333 518.5,66C 521.849,65.6124 525.183,65.7791 528.5,66.5 Z M 532.5,89.5 C 532.973,90.9063 533.973,91.573 535.5,91.5C 536.006,93.1054 536.673,93.4387 537.5,92.5C 541.599,98.4329 541.266,104.1 536.5,109.5C 535.833,109.5 535.5,109.833 535.5,110.5C 534.167,111.167 533.167,112.167 532.5,113.5C 530.597,113.796 528.93,114.463 527.5,115.5C 524.833,115.5 522.167,115.5 519.5,115.5C 518.791,114.596 517.791,114.263 516.5,114.5C 515.833,113.167 514.833,112.167 513.5,111.5C 513.5,110.833 513.167,110.5 512.5,110.5C 511.041,105.381 511.374,100.381 513.5,95.5C 515.5,94.1667 517.167,92.5 518.5,90.5C 519.492,90.6716 520.158,90.3382 520.5,89.5C 526.208,89.5076 526.541,89.0076 521.5,88C 522.833,87.8333 524.167,87.6667 525.5,87.5C 527.096,88.6327 529.429,89.2994 532.5,89.5 Z"/></g>
<g><path style="opacity:0.012" fill="#1e68c7" d="M 574.5,66.5 C 575.613,67.9464 575.78,69.6131 575,71.5C 574.506,69.8659 574.34,68.1992 574.5,66.5 Z"/></g>
<g><path style="opacity:0.004" fill="#0000ff" d="M 568.5,71.5 C 569.833,72.1667 569.833,72.1667 568.5,71.5 Z"/></g>
<g><path style="opacity:0.016" fill="#082f85" d="M 344.5,72.5 C 344.833,72.5 345.167,72.5 345.5,72.5C 345.5,73.5 345.5,74.5 345.5,75.5C 344.596,74.791 344.263,73.791 344.5,72.5 Z"/></g>
<g><path style="opacity:0.016" fill="#142161" d="M 393.5,73.5 C 392.833,73.5 392.5,73.8333 392.5,74.5C 391.287,73.5029 391.454,72.5029 393,71.5C 393.464,72.0944 393.631,72.7611 393.5,73.5 Z"/></g>
<g><path style="opacity:0.02" fill="#2a77e6" d="M 600.5,66.5 C 601.152,67.4486 601.486,68.6153 601.5,70C 600.858,75.3726 599.858,80.5392 598.5,85.5C 598.5,83.1667 598.5,80.8333 598.5,78.5C 599.461,76.7354 599.795,74.7354 599.5,72.5C 600.461,70.7354 600.795,68.7354 600.5,66.5 Z"/></g>
<g><path style="opacity:0.008" fill="#00007f" d="M 418.5,75.5 C 419.833,76.1667 419.833,76.1667 418.5,75.5 Z"/></g>
<g><path style="opacity:0.004" fill="#220eb8" d="M 420.5,75.5 C 421.573,76.2506 421.74,77.2506 421,78.5C 420.517,77.552 420.351,76.552 420.5,75.5 Z"/></g>
<g><path style="opacity:0.008" fill="#3d7dd1" d="M 573.5,72.5 C 574.613,73.9464 574.78,75.6131 574,77.5C 573.506,75.8659 573.34,74.1992 573.5,72.5 Z"/></g>
<g><path style="opacity:0.016" fill="#082f85" d="M 345.5,75.5 C 345.833,75.5 346.167,75.5 346.5,75.5C 346.167,79.5 345.833,79.5 345.5,75.5 Z"/></g>
<g><path style="opacity:0.004" fill="#240fa2" d="M 417.5,76.5 C 417.833,76.5 418.167,76.5 418.5,76.5C 418.167,79.1667 417.833,79.1667 417.5,76.5 Z"/></g>
<g><path style="opacity:0.004" fill="#000000" d="M 268.5,78.5 C 269.833,79.1667 269.833,79.1667 268.5,78.5 Z"/></g>
<g><path style="opacity:0.008" fill="#00007f" d="M 389.5,79.5 C 388.833,78.1667 388.833,78.1667 389.5,79.5 Z"/></g>
<g><path style="opacity:0.004" fill="#000000" d="M 388.5,79.5 C 387.833,80.1667 387.833,80.1667 388.5,79.5 Z"/></g>
<g><path style="opacity:0.008" fill="#186dff" d="M 496.5,81.5 C 495.833,81.5 495.5,81.8333 495.5,82.5C 494.287,81.5029 494.454,80.5029 496,79.5C 496.464,80.0944 496.631,80.7611 496.5,81.5 Z"/></g>
<g><path style="opacity:0.004" fill="#220eb8" d="M 572.5,79.5 C 573.573,80.2506 573.74,81.2506 573,82.5C 572.517,81.552 572.351,80.552 572.5,79.5 Z"/></g>
<g><path style="opacity:0.004" fill="#000000" d="M 267.5,80.5 C 268.525,80.8966 268.692,81.5632 268,82.5C 267.536,81.9056 267.369,81.2389 267.5,80.5 Z"/></g>
<g><path style="opacity:0.004" fill="#000000" d="M 386.5,81.5 C 387.833,82.1667 387.833,82.1667 386.5,81.5 Z"/></g>
<g><path style="opacity:0.012" fill="#1344b3" d="M 348.5,81.5 C 348.5,82.5 348.5,83.5 348.5,84.5C 347.167,83.5 347.167,82.5 348.5,81.5 Z"/></g>
<g><path style="opacity:0.016" fill="#003e7f" d="M 413.5,83.5 C 414.833,84.1667 414.833,84.1667 413.5,83.5 Z"/></g>
<g><path style="opacity:0.004" fill="#35a9e5" d="M 491.5,82.5 C 492.906,82.9731 493.573,83.9731 493.5,85.5C 493.167,85.5 492.833,85.5 492.5,85.5C 492.5,84.8333 492.167,84.5 491.5,84.5C 491.5,83.8333 491.5,83.1667 491.5,82.5 Z"/></g>
<g><path style="opacity:0.004" fill="#15052c" d="M 266.5,85.5 C 266.369,84.7611 266.536,84.0944 267,83.5C 267.692,84.4368 267.525,85.1034 266.5,85.5 Z"/></g>
<g><path style="opacity:0.012" fill="#0f134a" d="M 348.5,84.5 C 348.833,84.5 349.167,84.5 349.5,84.5C 349.5,85.5 349.5,86.5 349.5,87.5C 348.596,86.791 348.263,85.791 348.5,84.5 Z"/></g>
<g><path style="opacity:0.008" fill="#091b7f" d="M 412.5,84.5 C 412.833,84.5 413.167,84.5 413.5,84.5C 413.672,85.4916 413.338,86.1583 412.5,86.5C 412.5,85.8333 412.5,85.1667 412.5,84.5 Z"/></g>
<g><path style="opacity:0.004" fill="#1f50ff" d="M 490.5,84.5 C 490.833,84.5 491.167,84.5 491.5,84.5C 492.167,84.5 492.5,84.8333 492.5,85.5C 491.007,89.4123 490.34,89.079 490.5,84.5 Z"/></g>
<g><path style="opacity:0.004" fill="#15083f" d="M 265.5,85.5 C 265.833,85.5 266.167,85.5 266.5,85.5C 266.5,86.8333 266.5,88.1667 266.5,89.5C 266.167,89.5 265.833,89.5 265.5,89.5C 264.833,89.5 264.5,89.1667 264.5,88.5C 265.11,87.609 265.443,86.609 265.5,85.5 Z"/></g>
<g><path style="opacity:0.004" fill="#000000" d="M 571.5,86.5 C 572.833,87.1667 572.833,87.1667 571.5,86.5 Z"/></g>
<g><path style="opacity:0.01" fill="#196ff5" d="M 145.5,85.5 C 146.794,87.68 146.461,89.68 144.5,91.5C 144.5,90.5 144.5,89.5 144.5,88.5C 145.404,87.791 145.737,86.791 145.5,85.5 Z"/></g>
<g><path style="opacity:0.004" fill="#0000d2" d="M 349.5,87.5 C 349.833,87.5 350.167,87.5 350.5,87.5C 350.167,90.1667 349.833,90.1667 349.5,87.5 Z"/></g>
<g><path style="opacity:0.008" fill="#181f6b" d="M 339.5,88.5 C 339.833,88.5 340.167,88.5 340.5,88.5C 340.167,95.1667 339.833,95.1667 339.5,88.5 Z"/></g>
<g><path style="opacity:0.016" fill="#003e7f" d="M 261.5,91.5 C 261.833,91.5 262.167,91.5 262.5,91.5C 262.315,92.1701 261.981,92.1701 261.5,91.5 Z"/></g>
<g><path style="opacity:0.02" fill="#003266" d="M 260.5,92.5 C 260.833,92.5 261.167,92.5 261.5,92.5C 261.315,93.1701 260.981,93.1701 260.5,92.5 Z"/></g>
<g><path style="opacity:0.02" fill="#003266" d="M 259.5,93.5 C 259.833,93.5 260.167,93.5 260.5,93.5C 260.315,94.1701 259.981,94.1701 259.5,93.5 Z"/></g>
<g><path style="opacity:0.004" fill="#141533" d="M 407.5,92.5 C 407.833,92.5 408.167,92.5 408.5,92.5C 408.672,93.4916 408.338,94.1583 407.5,94.5C 407.5,93.8333 407.5,93.1667 407.5,92.5 Z"/></g>
<g><path style="opacity:0.008" fill="#00007f" d="M 406.5,94.5 C 406.833,94.5 407.167,94.5 407.5,94.5C 407.315,95.1701 406.981,95.1701 406.5,94.5 Z"/></g>
<g><path style="opacity:0.004" fill="#240fa2" d="M 487.5,94.5 C 488.525,94.8966 488.692,95.5632 488,96.5C 487.536,95.9056 487.369,95.2389 487.5,94.5 Z"/></g>
<g><path style="opacity:0.008" fill="#224fc4" d="M 143.5,91.5 C 143.833,91.5 144.167,91.5 144.5,91.5C 144.539,94.089 143.539,96.089 141.5,97.5C 141.5,96.8333 141.5,96.1667 141.5,95.5C 142.338,95.1583 142.672,94.4916 142.5,93.5C 143.338,93.1583 143.672,92.4916 143.5,91.5 Z"/></g>
<g><path style="opacity:0.004" fill="#140e32" d="M 258.5,94.5 C 258.833,94.5 259.167,94.5 259.5,94.5C 259.5,96.5 258.5,97.5 256.5,97.5C 256.5,97.1667 256.5,96.8333 256.5,96.5C 257.167,96.5 257.5,96.1667 257.5,95.5C 258.167,95.5 258.5,95.1667 258.5,94.5 Z"/></g>
<g><path style="opacity:0.004" fill="#2d3ff2" d="M 484.5,93.5 C 485.239,93.369 485.906,93.5357 486.5,94C 484.886,96.1267 482.886,97.6267 480.5,98.5C 480.5,98.1667 480.5,97.8333 480.5,97.5C 481.167,97.5 481.5,97.1667 481.5,96.5C 482.167,96.5 482.5,96.1667 482.5,95.5C 483.167,95.5 483.5,95.1667 483.5,94.5C 484.167,94.5 484.5,94.1667 484.5,93.5 Z"/></g>
<g><path style="opacity:0.008" fill="#00007f" d="M 255.5,97.5 C 255.833,97.5 256.167,97.5 256.5,97.5C 256.315,98.1701 255.981,98.1701 255.5,97.5 Z"/></g>
<g><path style="opacity:0.008" fill="#00007f" d="M 254.5,98.5 C 254.833,98.5 255.167,98.5 255.5,98.5C 255.315,99.1701 254.981,99.1701 254.5,98.5 Z"/></g>
<g><path style="opacity:0.004" fill="#0000ff" d="M 479.5,98.5 C 479.833,98.5 480.167,98.5 480.5,98.5C 480.315,99.1701 479.981,99.1701 479.5,98.5 Z"/></g>
<g><path style="opacity:0.004" fill="#0000ff" d="M 254.5,99.5 C 253.833,100.167 253.833,100.167 254.5,99.5 Z"/></g>
<g><path style="opacity:0.016" fill="#007ebf" d="M 138.5,100.5 C 138.833,100.5 139.167,100.5 139.5,100.5C 139.315,101.17 138.981,101.17 138.5,100.5 Z"/></g>
<g><path style="opacity:0.004" fill="#0000ff" d="M 251.5,100.5 C 252.833,101.167 252.833,101.167 251.5,100.5 Z"/></g>
<g><path style="opacity:0.004" fill="#000000" d="M 251.5,101.5 C 250.833,102.167 250.833,102.167 251.5,101.5 Z"/></g>
<g><path style="opacity:0.004" fill="#000000" d="M 353.5,102.5 C 354.833,103.167 354.833,103.167 353.5,102.5 Z"/></g>
<g><path style="opacity:0.004" fill="#000000" d="M 402.5,102.5 C 403.833,103.167 403.833,103.167 402.5,102.5 Z"/></g>
<g><path style="opacity:0.02" fill="#0b3485" d="M 263.5,94.5 C 263.5,96.1667 263.5,97.8333 263.5,99.5C 262.167,103.833 262.167,108.167 263.5,112.5C 263.543,116.893 263.043,117.226 262,113.5C 261.833,111 261.667,108.5 261.5,106C 261.349,101.888 262.016,98.0543 263.5,94.5 Z"/></g>
<g><path style="opacity:0.004" fill="#0000ff" d="M 401.5,103.5 C 401.833,103.5 402.167,103.5 402.5,103.5C 402.315,104.17 401.981,104.17 401.5,103.5 Z"/></g>
<g><path style="opacity:0.008" fill="#121667" d="M 236.5,106.5 C 236.5,106.167 236.5,105.833 236.5,105.5C 238.167,105.5 239.833,105.5 241.5,105.5C 240.081,106.451 238.415,106.784 236.5,106.5 Z"/></g>
<g><path style="opacity:0.004" fill="#0000ff" d="M 400.5,105.5 C 401.833,106.167 401.833,106.167 400.5,105.5 Z"/></g>
<g><path style="opacity:0.004" fill="#00fffe" d="M 133.5,106.5 C 134.833,107.167 134.833,107.167 133.5,106.5 Z"/></g>
<g><path style="opacity:0.004" fill="#15052c" d="M 399.5,106.5 C 399.833,106.5 400.167,106.5 400.5,106.5C 400.672,107.492 400.338,108.158 399.5,108.5C 399.5,107.833 399.5,107.167 399.5,106.5 Z"/></g>
<g><path style="opacity:0.008" fill="#18087b" d="M 356.5,107.5 C 356.649,108.552 356.483,109.552 356,110.5C 355.26,109.251 355.427,108.251 356.5,107.5 Z"/></g>
<g><path style="opacity:0.012" fill="#0054aa" d="M 398.5,108.5 C 398.833,108.5 399.167,108.5 399.5,108.5C 399.315,109.17 398.981,109.17 398.5,108.5 Z"/></g>
<g><path style="opacity:0.004" fill="#1a3248" d="M 132.5,107.5 C 132.833,107.5 133.167,107.5 133.5,107.5C 133.5,109.5 132.5,110.5 130.5,110.5C 130.5,110.167 130.5,109.833 130.5,109.5C 131.167,109.5 131.5,109.167 131.5,108.5C 132.167,108.5 132.5,108.167 132.5,107.5 Z"/></g>
<g><path style="opacity:0.012" fill="#00a9ff" d="M 129.5,110.5 C 129.833,110.5 130.167,110.5 130.5,110.5C 130.315,111.17 129.981,111.17 129.5,110.5 Z"/></g>
<g><path style="opacity:0.008" fill="#091b7f" d="M 397.5,109.5 C 397.833,109.5 398.167,109.5 398.5,109.5C 398.672,110.492 398.338,111.158 397.5,111.5C 397.5,110.833 397.5,110.167 397.5,109.5 Z"/></g>
<g><path style="opacity:0.008" fill="#15227b" d="M 191.5,105.5 C 191.5,107.833 191.5,110.167 191.5,112.5C 190.539,114.265 190.205,116.265 190.5,118.5C 189.539,120.265 189.205,122.265 189.5,124.5C 188.848,123.551 188.514,122.385 188.5,121C 189.142,115.627 190.142,110.461 191.5,105.5 Z"/></g>
<g><path style="opacity:0.004" fill="#131a48" d="M 396.5,111.5 C 396.833,111.5 397.167,111.5 397.5,111.5C 397.573,113.027 396.906,114.027 395.5,114.5C 395.5,113.833 395.5,113.167 395.5,112.5C 396.167,112.5 396.5,112.167 396.5,111.5 Z"/></g>
<g><path style="opacity:0.008" fill="#12057c" d="M 215.5,118.5 C 215.34,116.801 215.506,115.134 216,113.5C 216.78,115.387 216.613,117.054 215.5,118.5 Z"/></g>
<g><path style="opacity:0.008" fill="#2e73f2" d="M 440.5,110.5 C 440.833,110.5 441.167,110.5 441.5,110.5C 441.795,112.735 441.461,114.735 440.5,116.5C 440.5,114.5 440.5,112.5 440.5,110.5 Z"/></g>
<g><path style="opacity:0.012" fill="#273988" d="M 358.5,113.5 C 358.5,114.5 358.5,115.5 358.5,116.5C 357.167,115.5 357.167,114.5 358.5,113.5 Z"/></g>
<g><path style="opacity:0.004" fill="#0000ff" d="M 487.5,115.5 C 488.833,116.167 488.833,116.167 487.5,115.5 Z"/></g>
<g><path style="opacity:0.008" fill="#14066d" d="M 18.5,115.5 C 19.6225,117.288 19.7891,119.288 19,121.5C 18.5045,119.527 18.3379,117.527 18.5,115.5 Z"/></g>
<g><path style="opacity:0.004" fill="#0000ff" d="M 120.5,117.5 C 120.103,118.525 119.437,118.692 118.5,118C 119.094,117.536 119.761,117.369 120.5,117.5 Z"/></g>
<g><path style="opacity:0.012" fill="#1134a8" d="M 358.5,116.5 C 358.833,116.5 359.167,116.5 359.5,116.5C 359.5,117.5 359.5,118.5 359.5,119.5C 358.596,118.791 358.263,117.791 358.5,116.5 Z"/></g>
<g><path style="opacity:0.004" fill="#0000ff" d="M 116.5,118.5 C 117.833,119.167 117.833,119.167 116.5,118.5 Z"/></g>
<g><path style="opacity:0.004" fill="#0820dc" d="M 392.5,117.5 C 392.833,117.5 393.167,117.5 393.5,117.5C 393.672,118.492 393.338,119.158 392.5,119.5C 392.5,118.833 392.5,118.167 392.5,117.5 Z"/></g>
<g><path style="opacity:0.004" fill="#0000ff" d="M 488.5,118.5 C 489.833,119.167 489.833,119.167 488.5,118.5 Z"/></g>
<g><path style="opacity:0.004" fill="#000000" d="M 335.5,119.5 C 336.525,119.897 336.692,120.563 336,121.5C 335.536,120.906 335.369,120.239 335.5,119.5 Z"/></g>
<g><path style="opacity:0.012" fill="#0054aa" d="M 391.5,119.5 C 391.833,119.5 392.167,119.5 392.5,119.5C 392.315,120.17 391.981,120.17 391.5,119.5 Z"/></g>
<g><path style="opacity:0.004" fill="#1731e2" d="M 265.5,119.5 C 265.5,120.167 265.5,120.833 265.5,121.5C 264.167,120.833 264.167,120.167 265.5,119.5 Z"/></g>
<g><path style="opacity:0.004" fill="#38638d" d="M 439.5,116.5 C 439.833,116.5 440.167,116.5 440.5,116.5C 440.167,123.167 439.833,123.167 439.5,116.5 Z"/></g>
<g><path style="opacity:0.008" fill="#007f7e" d="M 489.5,120.5 C 490.833,121.167 490.833,121.167 489.5,120.5 Z"/></g>
<g><path style="opacity:0.004" fill="#0000ff" d="M 265.5,121.5 C 265.833,121.5 266.167,121.5 266.5,121.5C 266.315,122.17 265.981,122.17 265.5,121.5 Z"/></g>
<g><path style="opacity:0.004" fill="#1731e2" d="M 390.5,120.5 C 390.833,120.5 391.167,120.5 391.5,120.5C 391.672,121.492 391.338,122.158 390.5,122.5C 390.5,121.833 390.5,121.167 390.5,120.5 Z"/></g>
<g><path style="opacity:0.008" fill="#00007f" d="M 389.5,122.5 C 389.833,122.5 390.167,122.5 390.5,122.5C 390.315,123.17 389.981,123.17 389.5,122.5 Z"/></g>
<g><path style="opacity:0.008" fill="#007f7e" d="M 490.5,122.5 C 491.833,123.167 491.833,123.167 490.5,122.5 Z"/></g>
<g><path style="opacity:0.004" fill="#200d8e" d="M 17.5,122.5 C 18.6129,123.946 18.7796,125.613 18,127.5C 17.5065,125.866 17.3398,124.199 17.5,122.5 Z"/></g>
<g><path style="opacity:0.004" fill="#1e0bcf" d="M 334.5,123.5 C 335.613,124.946 335.78,126.613 335,128.5C 334.506,126.866 334.34,125.199 334.5,123.5 Z"/></g>
<g><path style="opacity:0.016" fill="#1c2771" d="M 214.5,118.5 C 214.833,118.5 215.167,118.5 215.5,118.5C 215.562,123.076 214.895,127.409 213.5,131.5C 213.5,129.167 213.5,126.833 213.5,124.5C 214.461,122.735 214.795,120.735 214.5,118.5 Z"/></g>
<g><path style="opacity:0.004" fill="#000000" d="M 386.5,128.5 C 387.833,129.167 387.833,129.167 386.5,128.5 Z"/></g>
<g><path style="opacity:0.004" fill="#000000" d="M 16.5,129.5 C 17.5735,130.251 17.7401,131.251 17,132.5C 16.5172,131.552 16.3505,130.552 16.5,129.5 Z"/></g>
<g><path style="opacity:0.008" fill="#0000b0" d="M 333.5,129.5 C 334.833,130.833 334.833,132.167 333.5,133.5C 333.5,132.167 333.5,130.833 333.5,129.5 Z"/></g>
<g><path style="opacity:0.004" fill="#000000" d="M 385.5,130.5 C 386.833,131.167 386.833,131.167 385.5,130.5 Z"/></g>
<g><path style="opacity:0.004" fill="#241177" d="M 187.5,133.5 C 186.427,132.749 186.26,131.749 187,130.5C 187.483,131.448 187.649,132.448 187.5,133.5 Z"/></g>
<g><path style="opacity:0.016" fill="#10305e" d="M 213.5,131.5 C 213.649,132.552 213.483,133.552 213,134.5C 212.26,133.251 212.427,132.251 213.5,131.5 Z"/></g>
<g><path style="opacity:0.004" fill="#1f0f4f" d="M 384.5,131.5 C 384.833,131.5 385.167,131.5 385.5,131.5C 385.672,132.492 385.338,133.158 384.5,133.5C 384.5,132.833 384.5,132.167 384.5,131.5 Z"/></g>
<g><path style="opacity:0.004" fill="#0000ff" d="M 187.5,133.5 C 187.833,133.5 188.167,133.5 188.5,133.5C 188.315,134.17 187.981,134.17 187.5,133.5 Z"/></g>
<g><path style="opacity:0.004" fill="#0000ff" d="M 332.5,133.5 C 332.833,133.5 333.167,133.5 333.5,133.5C 333.315,134.17 332.981,134.17 332.5,133.5 Z"/></g>
<g><path style="opacity:0.008" fill="#00007f" d="M 383.5,133.5 C 383.833,133.5 384.167,133.5 384.5,133.5C 384.315,134.17 383.981,134.17 383.5,133.5 Z"/></g>
<g><path style="opacity:0.004" fill="#00fffe" d="M 501.5,133.5 C 501.833,133.5 502.167,133.5 502.5,133.5C 502.315,134.17 501.981,134.17 501.5,133.5 Z"/></g>
<g><path style="opacity:0.004" fill="#000000" d="M 83.5,134.5 C 84.8333,135.167 84.8333,135.167 83.5,134.5 Z"/></g>
<g><path style="opacity:0.004" fill="#000000" d="M 277.5,134.5 C 278.833,135.167 278.833,135.167 277.5,134.5 Z"/></g>
<g><path style="opacity:0.004" fill="#000000" d="M 308.5,134.5 C 307.833,135.167 307.833,135.167 308.5,134.5 Z"/></g>
<g><path style="opacity:0.004" fill="#0000ff" d="M 354.5,134.5 C 355.833,135.167 355.833,135.167 354.5,134.5 Z"/></g>
<g><path style="opacity:0.004" fill="#0000ff" d="M 382.5,134.5 C 382.833,134.5 383.167,134.5 383.5,134.5C 383.672,135.492 383.338,136.158 382.5,136.5C 382.5,135.833 382.5,135.167 382.5,134.5 Z"/></g>
<g><path style="opacity:0.004" fill="#0000ff" d="M 504.5,134.5 C 503.833,135.167 503.833,135.167 504.5,134.5 Z"/></g>
<g><path style="opacity:0.004" fill="#000000" d="M 531.5,134.5 C 532.833,135.167 532.833,135.167 531.5,134.5 Z"/></g>
<g><path style="opacity:0.004" fill="#18194e" d="M 381.5,136.5 C 381.833,136.5 382.167,136.5 382.5,136.5C 382.573,138.027 381.906,139.027 380.5,139.5C 380.5,138.833 380.5,138.167 380.5,137.5C 381.167,137.5 381.5,137.167 381.5,136.5 Z"/></g>
<g><path style="opacity:0.004" fill="#0000ff" d="M 82.5,140.5 C 83.5735,141.251 83.7401,142.251 83,143.5C 82.5172,142.552 82.3505,141.552 82.5,140.5 Z"/></g>
<g><path style="opacity:0.004" fill="#0317d9" d="M 377.5,142.5 C 377.833,142.5 378.167,142.5 378.5,142.5C 378.672,143.492 378.338,144.158 377.5,144.5C 377.5,143.833 377.5,143.167 377.5,142.5 Z"/></g>
<g><path style="opacity:0.02" fill="#003266" d="M 376.5,144.5 C 376.833,144.5 377.167,144.5 377.5,144.5C 377.315,145.17 376.981,145.17 376.5,144.5 Z"/></g>
<g><path style="opacity:0.004" fill="#54b6ff" d="M 81.5,145.5 C 82.6129,146.946 82.7796,148.613 82,150.5C 81.5065,148.866 81.3398,147.199 81.5,145.5 Z"/></g>
<g><path style="opacity:0.008" fill="#03127f" d="M 375.5,145.5 C 375.833,145.5 376.167,145.5 376.5,145.5C 376.672,146.492 376.338,147.158 375.5,147.5C 375.5,146.833 375.5,146.167 375.5,145.5 Z"/></g>
<g><path style="opacity:0.016" fill="#003ebf" d="M 374.5,147.5 C 374.833,147.5 375.167,147.5 375.5,147.5C 375.315,148.17 374.981,148.17 374.5,147.5 Z"/></g>
<g><path style="opacity:0.024" fill="#01227a" d="M 346.5,149.5 C 346.5,150.5 346.5,151.5 346.5,152.5C 345.167,151.5 345.167,150.5 346.5,149.5 Z"/></g>
<g><path style="opacity:0.004" fill="#0000ff" d="M 372.5,150.5 C 372.833,150.5 373.167,150.5 373.5,150.5C 373.315,151.17 372.981,151.17 372.5,150.5 Z"/></g>
<g><path style="opacity:0.008" fill="#386eff" d="M 80.5,157.5 C 80.3379,155.473 80.5045,153.473 81,151.5C 81.7891,153.712 81.6225,155.712 80.5,157.5 Z"/></g>
<g><path style="opacity:0.008" fill="#319aff" d="M 80.5,157.5 C 80.7845,159.415 80.4511,161.081 79.5,162.5C 79.2155,160.585 79.5489,158.919 80.5,157.5 Z"/></g>
<g><path style="opacity:0.008" fill="#2ea8ff" d="M 78.5,162.5 C 78.8333,162.5 79.1667,162.5 79.5,162.5C 79.6716,163.492 79.3382,164.158 78.5,164.5C 78.5,163.833 78.5,163.167 78.5,162.5 Z"/></g>
<g><path style="opacity:0.004" fill="#00fffe" d="M 77.5,164.5 C 77.8333,164.5 78.1667,164.5 78.5,164.5C 78.3147,165.17 77.9813,165.17 77.5,164.5 Z"/></g>
<g><path style="opacity:0.004" fill="#00fffe" d="M 47.5,166.5 C 47.5,166.833 47.5,167.167 47.5,167.5C 46.8299,167.019 46.8299,166.685 47.5,166.5 Z"/></g>
<g><path style="opacity:0.004" fill="#0000ff" d="M 75.5,166.5 C 76.8333,167.167 76.8333,167.167 75.5,166.5 Z"/></g>
<g><path style="opacity:0.008" fill="#137df4" d="M 47.5,167.5 C 56.5062,167.334 65.5062,167.5 74.5,168C 65.3238,168.824 56.3238,168.657 47.5,167.5 Z"/></g>
</svg>
