<svg version="1.1" id="Layer_1" xmlns="http://www.w3.org/2000/svg" xmlns:xlink="http://www.w3.org/1999/xlink" x="0px" y="0px"
	 width="100%" viewBox="0 0 1206 1154" enable-background="new 0 0 1206 1154" xml:space="preserve">
<path fill="#FFFFFF" opacity="1.000000" stroke="none" 
	d="
M680.000000,1155.000000 
	C453.333344,1155.000000 227.166672,1155.000000 1.000000,1155.000000 
	C1.000000,770.333313 1.000000,385.666656 1.000000,1.000000 
	C403.000000,1.000000 805.000000,1.000000 1207.000000,1.000000 
	C1207.000000,385.666656 1207.000000,770.333313 1207.000000,1155.000000 
	C1031.500000,1155.000000 856.000000,1155.000000 680.000000,1155.000000 
M236.846207,859.635376 
	C260.318420,866.446838 283.790619,873.258240 307.216309,880.056213 
	C307.216309,621.548645 307.216309,363.458954 307.216309,105.234375 
	C248.940277,88.455223 191.213867,71.834320 133.285553,55.155289 
	C133.285553,313.431122 133.285553,571.358643 133.285553,829.538330 
	C167.684601,839.513489 201.886551,849.431458 236.846207,859.635376 
M1141.744507,547.500000 
	C1141.697876,488.841797 1141.579712,430.183441 1141.736206,371.525757 
	C1141.749146,366.667084 1140.133179,365.038208 1135.707642,363.874664 
	C1090.952759,352.108521 1046.261841,340.100342 1001.537170,328.219208 
	C990.687195,325.336945 979.779419,322.672119 968.358459,319.770142 
	C968.358459,322.761902 968.359863,324.913849 968.358276,327.065826 
	C968.186035,559.033325 968.025208,791.000854 967.745544,1022.968262 
	C967.740723,1026.978271 969.121094,1028.219604 972.785034,1029.182617 
	C1018.675842,1041.244629 1064.516479,1053.497681 1110.370728,1065.698364 
	C1120.615967,1068.424438 1130.864868,1071.137085 1141.744751,1074.023804 
	C1141.744751,898.408142 1141.744751,723.454041 1141.744507,547.500000 
M724.109436,875.295776 
	C724.266296,863.298950 724.548523,851.302185 724.561218,839.305237 
	C724.730652,679.654297 724.851929,520.003357 725.073120,360.352509 
	C725.077820,356.950958 724.374695,355.528046 720.706299,354.803650 
	C672.888123,345.360443 625.113708,335.695374 577.323608,326.109619 
	C568.443604,324.328491 559.542786,322.651031 550.149841,320.828369 
	C550.149841,323.267151 550.148926,325.077820 550.149902,326.888519 
	C550.231384,480.873474 550.288696,634.858398 550.427917,788.843384 
	C550.443909,806.504944 551.008545,824.165649 551.109192,841.827942 
	C551.131470,845.737183 552.029846,847.519531 556.350220,848.374451 
	C601.723022,857.353149 647.033691,866.645935 692.374329,875.788147 
	C702.723145,877.874817 713.121155,879.717590 723.780823,881.726135 
	C723.903564,879.516235 723.994934,877.871033 724.109436,875.295776 
M934.000000,769.486633 
	C933.942810,599.101257 933.885681,428.715881 933.828430,258.052277 
	C930.663574,258.052277 928.798706,257.746826 927.067078,258.097961 
	C899.629272,263.661621 872.226196,269.397491 844.778870,274.913055 
	C818.070129,280.280151 791.348572,285.596191 764.561157,290.547577 
	C759.844299,291.419464 758.898560,293.166748 758.901550,297.610657 
	C759.017578,469.421112 759.000000,641.231628 759.000000,813.042175 
	C759.000000,814.863953 759.000000,816.685791 759.000000,818.480652 
	C775.888489,815.255615 792.536621,812.184387 809.139465,808.884705 
	C848.981995,800.966370 888.803772,792.943115 928.632324,784.954285 
	C932.146423,784.249390 934.787659,782.965637 934.074890,778.467346 
	C933.662720,775.866333 934.000000,773.146545 934.000000,769.486633 
M516.392639,507.500061 
	C516.369446,490.168213 516.350769,472.836365 516.322266,455.504517 
	C516.218140,392.177307 516.121399,328.850067 515.969482,265.522980 
	C515.962708,262.706055 515.441467,259.890350 515.144653,256.921661 
	C501.214081,259.745209 488.276642,262.391266 475.329193,264.987427 
	C432.437531,273.587860 389.558685,282.254364 346.623169,290.630280 
	C342.302155,291.473236 341.505035,293.137512 341.507263,297.124603 
	C341.603424,468.941681 341.590088,640.758850 341.590118,812.575989 
	C341.590118,814.347900 341.590118,816.119873 341.590118,818.677185 
	C400.443451,806.865356 458.476746,795.218140 516.394531,783.594055 
	C516.394531,691.458740 516.394531,599.979431 516.392639,507.500061 
M427.759521,1032.342651 
	C428.055420,1028.037109 428.351318,1023.731567 428.672211,1019.062134 
	C433.281921,1019.062134 437.637909,1019.468384 441.892365,1018.983398 
	C453.151825,1017.700012 460.294403,1023.015259 465.045502,1032.582764 
	C471.034454,1044.643188 476.969574,1056.730347 483.038818,1068.750000 
	C483.683197,1070.026123 485.015442,1071.786255 486.121307,1071.856323 
	C491.321381,1072.185425 496.553802,1072.002686 502.932190,1072.002686 
	C491.725739,1053.227783 487.413483,1031.827148 470.612518,1017.676697 
	C490.896240,1011.904785 498.943268,1002.565735 500.367645,983.144043 
	C501.613831,966.152161 492.853607,954.516602 475.994263,952.894714 
	C463.121429,951.656250 450.076263,952.182434 437.106781,951.987976 
	C431.332794,951.901428 425.556427,951.973450 419.473541,951.973450 
	C416.446014,992.205261 413.456573,1031.930786 410.462982,1071.711426 
	C415.534973,1071.711426 419.969635,1071.711426 424.657837,1071.711426 
	C425.675323,1058.750610 426.675476,1046.010742 427.759521,1032.342651 
M635.059753,952.935242 
	C630.222290,952.575684 625.384766,952.216064 620.255432,951.834778 
	C617.204590,992.335510 614.212646,1032.053711 611.214111,1071.860352 
	C616.066711,1071.860352 620.331360,1071.860352 624.816895,1071.860352 
	C627.119751,1041.508179 629.404419,1011.396545 631.806091,979.741760 
	C633.358215,982.515503 634.191528,983.882935 634.910706,985.307922 
	C648.838806,1012.903748 662.731262,1040.517700 676.728882,1068.078247 
	C677.533936,1069.663330 679.049316,1071.821899 680.447937,1071.995972 
	C684.630493,1072.516602 688.919434,1072.183228 693.371216,1072.183228 
	C696.395630,1031.895630 699.368347,992.297729 702.360168,952.444336 
	C697.475891,952.444336 693.365601,952.444336 688.716919,952.444336 
	C686.401062,982.865112 684.093323,1013.180359 681.785522,1043.495605 
	C681.494446,1043.500732 681.203369,1043.505859 680.912231,1043.510986 
	C665.765259,1013.550598 650.618225,983.590210 635.059753,952.935242 
M522.639038,972.953796 
	C520.138123,1005.797485 517.637207,1038.641235 515.119934,1071.699097 
	C541.223572,1071.699097 567.073975,1071.699097 593.035217,1071.699097 
	C593.393127,1066.888184 593.722717,1062.457886 594.098267,1057.410156 
	C572.713501,1057.410156 551.804199,1057.410156 530.464600,1057.410156 
	C531.466980,1043.753540 532.424011,1030.715576 533.411865,1017.256775 
	C552.654419,1017.256775 571.572205,1017.256775 590.640808,1017.256775 
	C591.028198,1012.392944 591.381104,1007.961792 591.789001,1002.840271 
	C572.618958,1002.840271 553.757385,1002.840271 534.537354,1002.840271 
	C535.478943,990.443542 536.367615,978.743469 537.266113,966.913818 
	C557.815369,966.913818 577.791504,966.913818 598.408447,966.913818 
	C598.731812,961.945190 599.046143,957.115112 599.356384,952.348633 
	C573.813293,952.348633 549.049072,952.348633 524.144104,952.348633 
	C523.660522,959.096497 523.197083,965.562500 522.639038,972.953796 
M828.197144,979.591187 
	C815.649658,1010.315552 803.102234,1041.039917 790.260742,1072.484253 
	C794.427551,1072.484253 797.894348,1072.252808 801.314880,1072.551636 
	C804.506165,1072.830444 806.022095,1071.654785 807.113220,1068.671997 
	C810.596741,1059.149170 814.441589,1049.759033 817.996521,1040.261475 
	C819.004089,1037.569702 820.380432,1036.456787 823.438171,1036.515747 
	C835.097351,1036.740967 846.765808,1036.796143 858.423950,1036.567383 
	C861.883789,1036.499512 862.939941,1037.907593 863.662231,1040.894043 
	C865.966980,1050.422852 868.442017,1059.912964 871.051025,1069.362793 
	C871.400757,1070.629639 872.831177,1072.447510 873.874329,1072.527100 
	C878.437744,1072.875244 883.042786,1072.676880 888.135742,1072.676880 
	C876.835083,1032.259644 865.718445,992.500488 854.566223,952.613953 
	C850.266663,952.613953 846.405579,952.297668 842.639526,952.758240 
	C840.963562,952.963318 838.701416,954.382996 838.038086,955.852783 
	C834.621460,963.422485 831.637512,971.187378 828.197144,979.591187 
M371.358124,969.975830 
	C370.574921,967.088318 369.809265,964.195984 369.005310,961.314270 
	C366.381226,951.908142 366.366760,952.152954 356.743774,951.792725 
	C352.433746,951.631470 350.437134,952.890747 348.782501,957.023010 
	C337.166962,986.031494 325.213226,1014.904480 313.389008,1043.829468 
	C309.632263,1053.019531 305.940369,1062.235840 302.049438,1071.859131 
	C306.030090,1071.859131 309.392670,1071.543335 312.668243,1071.942017 
	C316.446655,1072.402100 317.925751,1070.615112 319.104889,1067.421143 
	C322.558746,1058.064819 326.351959,1048.833740 329.805542,1039.477295 
	C330.820892,1036.726685 332.221008,1035.737915 335.210022,1035.793457 
	C346.199799,1035.997681 357.208221,1036.214966 368.182770,1035.767456 
	C373.255920,1035.560669 374.964142,1037.380249 375.985321,1042.043213 
	C378.175537,1052.044678 380.998993,1061.907349 383.547913,1071.767822 
	C389.199982,1071.767822 394.330353,1071.767822 399.837372,1071.767822 
	C390.388519,1037.919556 381.011627,1004.329102 371.358124,969.975830 
M289.462708,995.868835 
	C281.707275,1015.463440 273.951813,1035.058105 265.889160,1055.428833 
	C257.657410,1020.248962 249.656052,986.053711 241.721725,952.144958 
	C236.187637,952.144958 231.302170,952.144958 226.165283,952.144958 
	C236.619385,992.261230 246.955048,1031.923096 257.344940,1071.793091 
	C260.864716,1071.793091 264.048553,1071.504028 267.156433,1071.866333 
	C271.024872,1072.317261 272.571869,1070.577637 273.960754,1067.181030 
	C285.597595,1038.722290 297.439026,1010.347290 309.219604,981.947327 
	C313.275635,972.169250 317.333710,962.391968 321.703522,951.860840 
	C317.989929,951.860840 315.011230,952.185608 312.134277,951.783142 
	C308.033051,951.209595 306.328125,953.010315 304.953705,956.659180 
	C300.090698,969.569824 294.886475,982.351929 289.462708,995.868835 
M749.021973,988.402893 
	C743.692383,977.497131 738.405579,966.570007 732.977783,955.713318 
	C732.317078,954.391785 730.960876,952.563904 729.820435,952.483643 
	C724.798462,952.129822 719.737427,952.330872 714.054077,952.330872 
	C715.165894,954.674133 715.837280,956.167175 716.573059,957.627869 
	C726.748169,977.826233 736.975891,997.998352 747.048828,1018.247437 
	C748.105774,1020.372070 748.805847,1022.962280 748.729980,1025.306030 
	C748.536316,1031.289429 747.756714,1037.251831 747.309448,1043.229858 
	C746.593262,1052.804199 745.956177,1062.384521 745.275757,1072.103027 
	C750.067749,1072.103027 754.499939,1072.103027 759.151733,1072.103027 
	C759.386414,1070.608032 759.682373,1069.326050 759.776306,1068.029175 
	C760.570129,1057.065430 761.552063,1046.108643 762.022217,1035.130127 
	C762.385620,1026.643433 764.254578,1019.105652 769.599976,1012.066040 
	C777.438477,1001.742981 784.321289,990.693237 791.592285,979.940308 
	C797.591309,971.068420 803.562866,962.178101 810.086914,952.493835 
	C805.063965,952.493835 801.087646,952.718750 797.151123,952.419861 
	C794.207275,952.196411 792.575684,953.435120 791.119873,955.737793 
	C780.985718,971.766541 770.785706,987.753662 760.598267,1003.748779 
	C759.846863,1004.928467 759.027710,1006.065002 757.950073,1007.647461 
	C754.908020,1001.055298 752.141174,995.059753 749.021973,988.402893 
z"/>
<path fill="#4266B4" opacity="1.000000" stroke="none" 
	d="
M236.467346,859.492432 
	C201.886551,849.431458 167.684601,839.513489 133.285553,829.538330 
	C133.285553,571.358643 133.285553,313.431122 133.285553,55.155289 
	C191.213867,71.834320 248.940277,88.455223 307.216309,105.234375 
	C307.216309,363.458954 307.216309,621.548645 307.216309,880.056213 
	C283.790619,873.258240 260.318420,866.446838 236.467346,859.492432 
M273.668640,809.237793 
	C273.668640,583.273438 273.668640,357.309143 273.668640,131.019440 
	C238.683762,120.306229 203.576736,109.555618 167.141602,98.398308 
	C167.141602,105.445183 167.141510,111.728615 167.141617,118.012054 
	C167.145660,344.989136 167.159790,571.966248 167.067749,798.943237 
	C167.066208,802.738892 168.077484,804.379028 171.823456,805.513672 
	C203.509445,815.111328 235.119415,824.959900 266.761139,834.704041 
	C268.740173,835.313477 270.794342,835.678833 273.664886,836.359619 
	C273.664886,827.112061 273.664886,818.646729 273.668640,809.237793 
z"/>
<path fill="#4366B5" opacity="1.000000" stroke="none" 
	d="
M1141.744629,548.000000 
	C1141.744751,723.454041 1141.744751,898.408142 1141.744751,1074.023804 
	C1130.864868,1071.137085 1120.615967,1068.424438 1110.370728,1065.698364 
	C1064.516479,1053.497681 1018.675842,1041.244629 972.785034,1029.182617 
	C969.121094,1028.219604 967.740723,1026.978271 967.745544,1022.968262 
	C968.025208,791.000854 968.186035,559.033325 968.358276,327.065826 
	C968.359863,324.913849 968.358459,322.761902 968.358459,319.770142 
	C979.779419,322.672119 990.687195,325.336945 1001.537170,328.219208 
	C1046.261841,340.100342 1090.952759,352.108521 1135.707642,363.874664 
	C1140.133179,365.038208 1141.749146,366.667084 1141.736206,371.525757 
	C1141.579712,430.183441 1141.697876,488.841797 1141.744629,548.000000 
M1001.594177,904.499939 
	C1001.594177,935.332825 1001.666809,966.166138 1001.499451,996.998169 
	C1001.479248,1000.710510 1002.677002,1002.109436 1006.147339,1003.060974 
	C1032.312622,1010.236267 1058.417114,1017.632874 1084.550903,1024.923340 
	C1092.127930,1027.037231 1099.738403,1029.031006 1108.165039,1031.304077 
	C1108.165039,1027.501221 1108.147949,1024.525146 1108.167603,1021.549377 
	C1108.316406,999.051147 1108.608643,976.552917 1108.604614,954.054688 
	C1108.570557,768.222961 1108.471802,582.391235 1108.484131,396.559509 
	C1108.484375,392.960846 1107.498779,391.323273 1103.903320,390.331818 
	C1082.232544,384.356049 1060.637451,378.106873 1039.007935,371.981476 
	C1026.858398,368.540802 1014.691223,365.162140 1001.593689,361.492676 
	C1001.593689,542.616028 1001.593689,723.057983 1001.594177,904.499939 
z"/>
<path fill="#4366B5" opacity="1.000000" stroke="none" 
	d="
M724.097900,875.760803 
	C723.994934,877.871033 723.903564,879.516235 723.780823,881.726135 
	C713.121155,879.717590 702.723145,877.874817 692.374329,875.788147 
	C647.033691,866.645935 601.723022,857.353149 556.350220,848.374451 
	C552.029846,847.519531 551.131470,845.737183 551.109192,841.827942 
	C551.008545,824.165649 550.443909,806.504944 550.427917,788.843384 
	C550.288696,634.858398 550.231384,480.873474 550.149902,326.888519 
	C550.148926,325.077820 550.149841,323.267151 550.149841,320.828369 
	C559.542786,322.651031 568.443604,324.328491 577.323608,326.109619 
	C625.113708,335.695374 672.888123,345.360443 720.706299,354.803650 
	C724.374695,355.528046 725.077820,356.950958 725.073120,360.352509 
	C724.851929,520.003357 724.730652,679.654297 724.561218,839.305237 
	C724.548523,851.302185 724.266296,863.298950 724.097900,875.760803 
M588.164795,361.266541 
	C584.327515,360.252899 585.070374,363.141357 585.047119,365.096436 
	C584.787781,386.920135 584.422180,408.744324 584.397034,430.568726 
	C584.266602,543.868469 584.202087,657.168396 584.187134,770.468262 
	C584.185242,784.793030 584.756165,799.117798 584.752441,813.442505 
	C584.751282,818.033142 586.132141,820.049561 590.907349,821.040100 
	C622.328857,827.558228 653.676270,834.433594 685.049377,841.185547 
	C686.754700,841.552551 688.473267,841.857910 691.000427,842.350891 
	C691.000427,837.781372 690.993530,833.972351 691.001404,830.163330 
	C691.084045,790.341858 691.215942,750.520508 691.244568,710.698975 
	C691.321716,603.397339 691.353821,496.095703 691.412720,388.794067 
	C691.414368,385.835938 691.967102,383.167236 687.546021,382.259918 
	C654.656128,375.509979 621.822449,368.485931 588.164795,361.266541 
z"/>
<path fill="#4165B4" opacity="1.000000" stroke="none" 
	d="
M934.000000,769.983398 
	C934.000000,773.146545 933.662720,775.866333 934.074890,778.467346 
	C934.787659,782.965637 932.146423,784.249390 928.632324,784.954285 
	C888.803772,792.943115 848.981995,800.966370 809.139465,808.884705 
	C792.536621,812.184387 775.888489,815.255615 759.000000,818.480652 
	C759.000000,816.685791 759.000000,814.863953 759.000000,813.042175 
	C759.000000,641.231628 759.017578,469.421112 758.901550,297.610657 
	C758.898560,293.166748 759.844299,291.419464 764.561157,290.547577 
	C791.348572,285.596191 818.070129,280.280151 844.778870,274.913055 
	C872.226196,269.397491 899.629272,263.661621 927.067078,258.097961 
	C928.798706,257.746826 930.663574,258.052277 933.828430,258.052277 
	C933.885681,428.715881 933.942810,599.101257 934.000000,769.983398 
M900.000000,416.500000 
	C900.000000,376.725189 900.000000,336.950378 900.000000,296.343903 
	C863.977783,304.158966 828.716736,311.808868 793.177246,319.519196 
	C793.177246,472.652161 793.177246,625.595093 793.177246,778.673401 
	C809.101501,775.310730 824.954102,771.994568 840.792175,768.610535 
	C858.857422,764.750549 876.895996,760.764465 894.980408,756.997742 
	C898.172607,756.332947 899.732666,755.319824 899.712891,751.660889 
	C899.624512,735.269470 899.922485,718.876526 899.930542,702.484009 
	C899.977234,607.489319 899.981445,512.494690 900.000000,416.500000 
z"/>
<path fill="#4265B4" opacity="1.000000" stroke="none" 
	d="
M516.393555,508.000061 
	C516.394531,599.979431 516.394531,691.458740 516.394531,783.594055 
	C458.476746,795.218140 400.443451,806.865356 341.590118,818.677185 
	C341.590118,816.119873 341.590118,814.347900 341.590118,812.575989 
	C341.590088,640.758850 341.603424,468.941681 341.507263,297.124603 
	C341.505035,293.137512 342.302155,291.473236 346.623169,290.630280 
	C389.558685,282.254364 432.437531,273.587860 475.329193,264.987427 
	C488.276642,262.391266 501.214081,259.745209 515.144653,256.921661 
	C515.441467,259.890350 515.962708,262.706055 515.969482,265.522980 
	C516.121399,328.850067 516.218140,392.177307 516.322266,455.504517 
	C516.350769,472.836365 516.369446,490.168213 516.393555,508.000061 
M375.409424,726.499939 
	C375.409424,743.619019 375.409424,760.738098 375.409424,778.651917 
	C411.303406,770.901489 446.542114,763.292542 482.265869,755.578857 
	C482.265869,602.514893 482.265869,449.787903 482.265869,296.332458 
	C446.833405,304.049530 411.411804,311.764221 375.409851,319.605286 
	C375.409851,455.264496 375.409851,590.382202 375.409424,726.499939 
z"/>
<path fill="#373737" opacity="1.000000" stroke="none" 
	d="
M427.717590,1032.806641 
	C426.675476,1046.010742 425.675323,1058.750610 424.657837,1071.711426 
	C419.969635,1071.711426 415.534973,1071.711426 410.462982,1071.711426 
	C413.456573,1031.930786 416.446014,992.205261 419.473541,951.973450 
	C425.556427,951.973450 431.332794,951.901428 437.106781,951.987976 
	C450.076263,952.182434 463.121429,951.656250 475.994263,952.894714 
	C492.853607,954.516602 501.613831,966.152161 500.367645,983.144043 
	C498.943268,1002.565735 490.896240,1011.904785 470.612579,1017.676636 
	C487.413483,1031.827148 491.725739,1053.227783 502.932190,1072.002686 
	C496.553802,1072.002686 491.321381,1072.185425 486.121307,1071.856323 
	C485.015442,1071.786255 483.683197,1070.026123 483.038818,1068.750000 
	C476.969574,1056.730347 471.034454,1044.643188 465.045502,1032.582764 
	C460.294403,1023.015259 453.151825,1017.700012 441.892365,1018.983398 
	C437.637909,1019.468384 433.281921,1019.062134 428.672211,1019.062134 
	C428.351318,1023.731567 428.055420,1028.037109 427.717590,1032.806641 
M455.497223,965.794556 
	C448.044250,965.794556 440.591248,965.794556 432.681030,965.794556 
	C431.706787,978.961365 430.760529,991.749939 429.796143,1004.783203 
	C440.873871,1004.783203 451.171875,1005.053650 461.444031,1004.656128 
	C465.832123,1004.486267 470.415619,1003.530640 474.472229,1001.864990 
	C482.532166,998.555664 486.961731,988.936829 485.322998,979.916016 
	C483.761017,971.317688 478.447510,966.903442 468.449066,966.147827 
	C464.478241,965.847717 460.480621,965.902771 455.497223,965.794556 
z"/>
<path fill="#373737" opacity="1.000000" stroke="none" 
	d="
M635.265503,953.282471 
	C650.618225,983.590210 665.765259,1013.550598 680.912231,1043.510986 
	C681.203369,1043.505859 681.494446,1043.500732 681.785522,1043.495605 
	C684.093323,1013.180359 686.401062,982.865112 688.716919,952.444336 
	C693.365601,952.444336 697.475891,952.444336 702.360168,952.444336 
	C699.368347,992.297729 696.395630,1031.895630 693.371216,1072.183228 
	C688.919434,1072.183228 684.630493,1072.516602 680.447937,1071.995972 
	C679.049316,1071.821899 677.533936,1069.663330 676.728882,1068.078247 
	C662.731262,1040.517700 648.838806,1012.903748 634.910706,985.307922 
	C634.191528,983.882935 633.358215,982.515503 631.806091,979.741760 
	C629.404419,1011.396545 627.119751,1041.508179 624.816895,1071.860352 
	C620.331360,1071.860352 616.066711,1071.860352 611.214111,1071.860352 
	C614.212646,1032.053711 617.204590,992.335510 620.255432,951.834778 
	C625.384766,952.216064 630.222290,952.575684 635.265503,953.282471 
z"/>
<path fill="#363636" opacity="1.000000" stroke="none" 
	d="
M522.686401,972.491150 
	C523.197083,965.562500 523.660522,959.096497 524.144104,952.348633 
	C549.049072,952.348633 573.813293,952.348633 599.356384,952.348633 
	C599.046143,957.115112 598.731812,961.945190 598.408447,966.913818 
	C577.791504,966.913818 557.815369,966.913818 537.266113,966.913818 
	C536.367615,978.743469 535.478943,990.443542 534.537354,1002.840271 
	C553.757385,1002.840271 572.618958,1002.840271 591.789001,1002.840271 
	C591.381104,1007.961792 591.028198,1012.392944 590.640808,1017.256775 
	C571.572205,1017.256775 552.654419,1017.256775 533.411865,1017.256775 
	C532.424011,1030.715576 531.466980,1043.753540 530.464600,1057.410156 
	C551.804199,1057.410156 572.713501,1057.410156 594.098267,1057.410156 
	C593.722717,1062.457886 593.393127,1066.888184 593.035217,1071.699097 
	C567.073975,1071.699097 541.223572,1071.699097 515.119934,1071.699097 
	C517.637207,1038.641235 520.138123,1005.797485 522.686401,972.491150 
z"/>
<path fill="#383838" opacity="1.000000" stroke="none" 
	d="
M828.349854,979.237671 
	C831.637512,971.187378 834.621460,963.422485 838.038086,955.852783 
	C838.701416,954.382996 840.963562,952.963318 842.639526,952.758240 
	C846.405579,952.297668 850.266663,952.613953 854.566223,952.613953 
	C865.718445,992.500488 876.835083,1032.259644 888.135742,1072.676880 
	C883.042786,1072.676880 878.437744,1072.875244 873.874329,1072.527100 
	C872.831177,1072.447510 871.400757,1070.629639 871.051025,1069.362793 
	C868.442017,1059.912964 865.966980,1050.422852 863.662231,1040.894043 
	C862.939941,1037.907593 861.883789,1036.499512 858.423950,1036.567383 
	C846.765808,1036.796143 835.097351,1036.740967 823.438171,1036.515747 
	C820.380432,1036.456787 819.004089,1037.569702 817.996521,1040.261475 
	C814.441589,1049.759033 810.596741,1059.149170 807.113220,1068.671997 
	C806.022095,1071.654785 804.506165,1072.830444 801.314880,1072.551636 
	C797.894348,1072.252808 794.427551,1072.484253 790.260742,1072.484253 
	C803.102234,1041.039917 815.649658,1010.315552 828.349854,979.237671 
M825.414734,1021.199402 
	C825.843628,1021.788635 826.267944,1022.888428 826.702148,1022.892273 
	C837.338501,1022.987854 847.975891,1022.967041 858.902283,1022.967041 
	C854.345520,1004.356201 849.884827,986.137939 845.712219,969.096375 
	C839.349182,985.517639 832.575562,1002.998352 825.414734,1021.199402 
z"/>
<path fill="#373737" opacity="1.000000" stroke="none" 
	d="
M371.496429,970.357239 
	C381.011627,1004.329102 390.388519,1037.919556 399.837372,1071.767822 
	C394.330353,1071.767822 389.199982,1071.767822 383.547913,1071.767822 
	C380.998993,1061.907349 378.175537,1052.044678 375.985321,1042.043213 
	C374.964142,1037.380249 373.255920,1035.560669 368.182770,1035.767456 
	C357.208221,1036.214966 346.199799,1035.997681 335.210022,1035.793457 
	C332.221008,1035.737915 330.820892,1036.726685 329.805542,1039.477295 
	C326.351959,1048.833740 322.558746,1058.064819 319.104889,1067.421143 
	C317.925751,1070.615112 316.446655,1072.402100 312.668243,1071.942017 
	C309.392670,1071.543335 306.030090,1071.859131 302.049438,1071.859131 
	C305.940369,1062.235840 309.632263,1053.019531 313.389008,1043.829468 
	C325.213226,1014.904480 337.166962,986.031494 348.782501,957.023010 
	C350.437134,952.890747 352.433746,951.631470 356.743774,951.792725 
	C366.366760,952.152954 366.381226,951.908142 369.005310,961.314270 
	C369.809265,964.195984 370.574921,967.088318 371.496429,970.357239 
M357.662964,968.046875 
	C357.098297,968.973999 356.358948,969.837830 355.996429,970.838196 
	C353.000427,979.105530 350.198517,987.445129 347.092773,995.670288 
	C343.821838,1004.332947 340.280762,1012.893616 336.724823,1021.832825 
	C348.212036,1021.832825 359.197937,1021.832825 370.412872,1021.832825 
	C366.169891,1003.863708 362.015778,986.270813 357.662964,968.046875 
z"/>
<path fill="#373737" opacity="1.000000" stroke="none" 
	d="
M289.637146,995.525757 
	C294.886475,982.351929 300.090698,969.569824 304.953705,956.659180 
	C306.328125,953.010315 308.033051,951.209595 312.134277,951.783142 
	C315.011230,952.185608 317.989929,951.860840 321.703522,951.860840 
	C317.333710,962.391968 313.275635,972.169250 309.219604,981.947327 
	C297.439026,1010.347290 285.597595,1038.722290 273.960754,1067.181030 
	C272.571869,1070.577637 271.024872,1072.317261 267.156433,1071.866333 
	C264.048553,1071.504028 260.864716,1071.793091 257.344940,1071.793091 
	C246.955048,1031.923096 236.619385,992.261230 226.165283,952.144958 
	C231.302170,952.144958 236.187637,952.144958 241.721725,952.144958 
	C249.656052,986.053711 257.657410,1020.248962 265.889160,1055.428833 
	C273.951813,1035.058105 281.707275,1015.463440 289.637146,995.525757 
z"/>
<path fill="#373737" opacity="1.000000" stroke="none" 
	d="
M749.198181,988.733521 
	C752.141174,995.059753 754.908020,1001.055298 757.950073,1007.647461 
	C759.027710,1006.065002 759.846863,1004.928467 760.598267,1003.748779 
	C770.785706,987.753662 780.985718,971.766541 791.119873,955.737793 
	C792.575684,953.435120 794.207275,952.196411 797.151123,952.419861 
	C801.087646,952.718750 805.063965,952.493835 810.086914,952.493835 
	C803.562866,962.178101 797.591309,971.068420 791.592285,979.940308 
	C784.321289,990.693237 777.438477,1001.742981 769.599976,1012.066040 
	C764.254578,1019.105652 762.385620,1026.643433 762.022217,1035.130127 
	C761.552063,1046.108643 760.570129,1057.065430 759.776306,1068.029175 
	C759.682373,1069.326050 759.386414,1070.608032 759.151733,1072.103027 
	C754.499939,1072.103027 750.067749,1072.103027 745.275757,1072.103027 
	C745.956177,1062.384521 746.593262,1052.804199 747.309448,1043.229858 
	C747.756714,1037.251831 748.536316,1031.289429 748.729980,1025.306030 
	C748.805847,1022.962280 748.105774,1020.372070 747.048828,1018.247437 
	C736.975891,997.998352 726.748169,977.826233 716.573059,957.627869 
	C715.837280,956.167175 715.165894,954.674133 714.054077,952.330872 
	C719.737427,952.330872 724.798462,952.129822 729.820435,952.483643 
	C730.960876,952.563904 732.317078,954.391785 732.977783,955.713318 
	C738.405579,966.570007 743.692383,977.497131 749.198181,988.733521 
z"/>
<path fill="#FFFFFF" opacity="1.000000" stroke="none" 
	d="
M273.666748,809.709595 
	C273.664886,818.646729 273.664886,827.112061 273.664886,836.359619 
	C270.794342,835.678833 268.740173,835.313477 266.761139,834.704041 
	C235.119415,824.959900 203.509445,815.111328 171.823456,805.513672 
	C168.077484,804.379028 167.066208,802.738892 167.067749,798.943237 
	C167.159790,571.966248 167.145660,344.989136 167.141617,118.012054 
	C167.141510,111.728615 167.141602,105.445183 167.141602,98.398308 
	C203.576736,109.555618 238.683762,120.306229 273.668640,131.019440 
	C273.668640,357.309143 273.668640,583.273438 273.666748,809.709595 
z"/>
<path fill="#FEFEFF" opacity="1.000000" stroke="none" 
	d="
M1001.593933,903.999878 
	C1001.593689,723.057983 1001.593689,542.616028 1001.593689,361.492676 
	C1014.691223,365.162140 1026.858398,368.540802 1039.007935,371.981476 
	C1060.637451,378.106873 1082.232544,384.356049 1103.903320,390.331818 
	C1107.498779,391.323273 1108.484375,392.960846 1108.484131,396.559509 
	C1108.471802,582.391235 1108.570557,768.222961 1108.604614,954.054688 
	C1108.608643,976.552917 1108.316406,999.051147 1108.167603,1021.549377 
	C1108.147949,1024.525146 1108.165039,1027.501221 1108.165039,1031.304077 
	C1099.738403,1029.031006 1092.127930,1027.037231 1084.550903,1024.923340 
	C1058.417114,1017.632874 1032.312622,1010.236267 1006.147339,1003.060974 
	C1002.677002,1002.109436 1001.479248,1000.710510 1001.499451,996.998169 
	C1001.666809,966.166138 1001.594177,935.332825 1001.593933,903.999878 
z"/>
<path fill="#FEFEFF" opacity="1.000000" stroke="none" 
	d="
M588.567993,361.407227 
	C621.822449,368.485931 654.656128,375.509979 687.546021,382.259918 
	C691.967102,383.167236 691.414368,385.835938 691.412720,388.794067 
	C691.353821,496.095703 691.321716,603.397339 691.244568,710.698975 
	C691.215942,750.520508 691.084045,790.341858 691.001404,830.163330 
	C690.993530,833.972351 691.000427,837.781372 691.000427,842.350891 
	C688.473267,841.857910 686.754700,841.552551 685.049377,841.185547 
	C653.676270,834.433594 622.328857,827.558228 590.907349,821.040100 
	C586.132141,820.049561 584.751282,818.033142 584.752441,813.442505 
	C584.756165,799.117798 584.185242,784.793030 584.187134,770.468262 
	C584.202087,657.168396 584.266602,543.868469 584.397034,430.568726 
	C584.422180,408.744324 584.787781,386.920135 585.047119,365.096436 
	C585.070374,363.141357 584.327515,360.252899 588.567993,361.407227 
z"/>
<path fill="#FFFFFF" opacity="1.000000" stroke="none" 
	d="
M900.000000,417.000000 
	C899.981445,512.494690 899.977234,607.489319 899.930542,702.484009 
	C899.922485,718.876526 899.624512,735.269470 899.712891,751.660889 
	C899.732666,755.319824 898.172607,756.332947 894.980408,756.997742 
	C876.895996,760.764465 858.857422,764.750549 840.792175,768.610535 
	C824.954102,771.994568 809.101501,775.310730 793.177246,778.673401 
	C793.177246,625.595093 793.177246,472.652161 793.177246,319.519196 
	C828.716736,311.808868 863.977783,304.158966 900.000000,296.343903 
	C900.000000,336.950378 900.000000,376.725189 900.000000,417.000000 
z"/>
<path fill="#FFFFFF" opacity="1.000000" stroke="none" 
	d="
M375.409637,725.999878 
	C375.409851,590.382202 375.409851,455.264496 375.409851,319.605286 
	C411.411804,311.764221 446.833405,304.049530 482.265869,296.332458 
	C482.265869,449.787903 482.265869,602.514893 482.265869,755.578857 
	C446.542114,763.292542 411.303406,770.901489 375.409424,778.651917 
	C375.409424,760.738098 375.409424,743.619019 375.409637,725.999878 
z"/>
<path fill="#FDFDFD" opacity="1.000000" stroke="none" 
	d="
M455.996216,965.795349 
	C460.480621,965.902771 464.478241,965.847717 468.449066,966.147827 
	C478.447510,966.903442 483.761017,971.317688 485.322998,979.916016 
	C486.961731,988.936829 482.532166,998.555664 474.472229,1001.864990 
	C470.415619,1003.530640 465.832123,1004.486267 461.444031,1004.656128 
	C451.171875,1005.053650 440.873871,1004.783203 429.796143,1004.783203 
	C430.760529,991.749939 431.706787,978.961365 432.681030,965.794556 
	C440.591248,965.794556 448.044250,965.794556 455.996216,965.795349 
z"/>
<path fill="#FBFBFB" opacity="1.000000" stroke="none" 
	d="
M825.608398,1020.839233 
	C832.575562,1002.998352 839.349182,985.517639 845.712219,969.096375 
	C849.884827,986.137939 854.345520,1004.356201 858.902283,1022.967041 
	C847.975891,1022.967041 837.338501,1022.987854 826.702148,1022.892273 
	C826.267944,1022.888428 825.843628,1021.788635 825.608398,1020.839233 
z"/>
<path fill="#FBFBFB" opacity="1.000000" stroke="none" 
	d="
M357.762329,968.362427 
	C362.015778,986.270813 366.169891,1003.863708 370.412872,1021.832825 
	C359.197937,1021.832825 348.212036,1021.832825 336.724823,1021.832825 
	C340.280762,1012.893616 343.821838,1004.332947 347.092773,995.670288 
	C350.198517,987.445129 353.000427,979.105530 355.996429,970.838196 
	C356.358948,969.837830 357.098297,968.973999 357.762329,968.362427 
z"/>
</svg>