<?xml version="1.0" encoding="UTF-8"?>
<!DOCTYPE svg PUBLIC "-//W3C//DTD SVG 1.1//EN" "http://www.w3.org/Graphics/SVG/1.1/DTD/svg11.dtd">
<svg xmlns="http://www.w3.org/2000/svg" version="1.1" width="640px" height="189px" style="shape-rendering:geometricPrecision; text-rendering:geometricPrecision; image-rendering:optimizeQuality; fill-rule:evenodd; clip-rule:evenodd" xmlns:xlink="http://www.w3.org/1999/xlink">
<g><path style="opacity:0.004" fill="#1d0f45" d="M 298.5,3.5 C 312.327,2.33932 326.327,2.17266 340.5,3C 326.504,3.49991 312.504,3.66657 298.5,3.5 Z"/></g>
<g><path style="opacity:0.008" fill="#25326b" d="M 282.5,4.5 C 286.981,3.35159 291.648,3.18492 296.5,4C 291.845,4.49915 287.179,4.66582 282.5,4.5 Z"/></g>
<g><path style="opacity:0.008" fill="#273e70" d="M 356.5,4.5 C 351.821,4.66582 347.155,4.49915 342.5,4C 347.352,3.18492 352.019,3.35159 356.5,4.5 Z"/></g>
<g><path style="opacity:0.004" fill="#1c1e4b" d="M 273.5,5.5 C 276.287,4.52333 279.287,4.19 282.5,4.5C 279.713,5.47667 276.713,5.81 273.5,5.5 Z"/></g>
<g><path style="opacity:0.008" fill="#233360" d="M 356.5,4.5 C 359.713,4.19 362.713,4.52333 365.5,5.5C 362.287,5.81 359.287,5.47667 356.5,4.5 Z"/></g>
<g><path style="opacity:0.012" fill="#16545d" d="M 273.5,5.5 C 271.712,6.62247 269.712,6.78914 267.5,6C 269.473,5.50454 271.473,5.33788 273.5,5.5 Z"/></g>
<g><path style="opacity:0.02" fill="#15425b" d="M 365.5,5.5 C 370.076,5.43786 374.409,6.10452 378.5,7.5C 376.167,7.5 373.833,7.5 371.5,7.5C 369.5,6.83333 367.5,6.16667 365.5,5.5 Z"/></g>
<g><path style="opacity:0.004" fill="#000000" d="M 210.5,18.5 C 211.833,19.1667 211.833,19.1667 210.5,18.5 Z"/></g>
<g><path style="opacity:0.004" fill="#000000" d="M 427.5,19.5 C 427.897,18.475 428.563,18.3083 429.5,19C 428.906,19.4643 428.239,19.631 427.5,19.5 Z"/></g>
<g><path style="opacity:0.004" fill="#000000" d="M 430.5,20.5 C 430.897,19.475 431.563,19.3083 432.5,20C 431.906,20.4643 431.239,20.631 430.5,20.5 Z"/></g>
<g><path style="opacity:0.006" fill="#113030" d="M 438.5,23.5 C 440.128,22.1472 441.462,22.4805 442.5,24.5C 441.833,24.5 441.167,24.5 440.5,24.5C 440.158,23.6618 439.492,23.3284 438.5,23.5 Z"/></g>
<g><path style="opacity:0.008" fill="#00007f" d="M 171.5,37.5 C 170.833,36.1667 170.833,36.1667 171.5,37.5 Z"/></g>
<g><path style="opacity:1" fill="#f1f3f6" d="M 396.5,33.5 C 394.194,37.3369 392.027,41.3369 390,45.5C 378.31,61.3455 366.477,77.0121 354.5,92.5C 352.727,93.3143 352.227,94.6476 353,96.5C 354.062,97.0968 355.228,97.4302 356.5,97.5C 360.583,96.6394 364.583,95.4727 368.5,94C 376.679,89.7466 384.346,84.7466 391.5,79C 402.037,73.4959 412.703,73.1626 423.5,78C 424.804,78.804 425.471,79.9707 425.5,81.5C 424.129,85.043 422.129,88.2096 419.5,91C 420.167,91.1667 420.833,91.3333 421.5,91.5C 430.619,85.9419 440.286,81.4419 450.5,78C 460.059,75.8102 469.726,75.1435 479.5,76C 480.833,78 480.833,80 479.5,82C 471.155,81.4592 463.655,83.6259 457,88.5C 452.74,94.2536 454.24,97.4202 461.5,98C 462.833,99.3333 462.833,100.667 461.5,102C 454.335,102.539 447.669,104.539 441.5,108C 437.218,110.739 436.552,114.073 439.5,118C 451.613,120.343 463.113,118.509 474,112.5C 476.298,114.304 476.965,116.637 476,119.5C 464.591,123.707 452.758,125.707 440.5,125.5C 433.037,123.251 430.204,118.251 432,110.5C 435.892,105.381 440.892,101.714 447,99.5C 447.044,96.5248 446.877,93.5248 446.5,90.5C 450.975,86.6247 450.309,84.7914 444.5,85C 432.779,89.3599 421.779,95.0266 411.5,102C 410.333,103.167 409.167,104.333 408,105.5C 403.692,119.783 397.026,132.783 388,144.5C 383.926,149.079 379.426,153.079 374.5,156.5C 364.882,160.03 359.215,156.864 357.5,147C 358.06,142.985 359.227,139.152 361,135.5C 364.799,130.699 368.966,126.199 373.5,122C 382.718,115.273 392.052,108.773 401.5,102.5C 396.861,101.828 392.194,101.662 387.5,102C 386.299,101.097 385.465,99.9308 385,98.5C 384.818,95.7737 384.318,93.1071 383.5,90.5C 375.242,95.7956 366.575,100.296 357.5,104C 351.897,104.532 347.564,102.365 344.5,97.5C 337.767,103.717 330.101,108.55 321.5,112C 313.344,114.652 309.344,111.819 309.5,103.5C 308.127,103.343 306.793,103.51 305.5,104C 301.62,109.881 296.287,111.881 289.5,110C 287.781,106.043 287.114,101.876 287.5,97.5C 286.127,97.3433 284.793,97.51 283.5,98C 277.234,102.8 270.234,105.966 262.5,107.5C 260.307,107.674 258.473,107.007 257,105.5C 256.503,102.854 256.336,100.187 256.5,97.5C 257.108,96.2003 257.775,94.8669 258.5,93.5C 258.167,92.8333 257.833,92.1667 257.5,91.5C 246.567,99.2594 235.234,106.426 223.5,113C 212.021,130.486 199.021,146.819 184.5,162C 177.811,167.678 170.477,172.345 162.5,176C 157.043,177.224 152.043,176.391 147.5,173.5C 145.025,169.344 144.859,165.011 147,160.5C 154.264,151.314 162.764,143.647 172.5,137.5C 184.172,130.159 195.838,122.826 207.5,115.5C 189.232,112.91 171.898,107.41 155.5,99C 149.366,93.0588 148.866,86.5588 154,79.5C 182.164,51.671 215.997,37.5044 255.5,37C 261.229,39.4595 263.896,43.7928 263.5,50C 262.543,61.4222 258.377,71.5889 251,80.5C 244.688,88.3134 238.188,95.9801 231.5,103.5C 232.002,104.521 232.668,104.688 233.5,104C 245.114,95.2118 257.114,87.0451 269.5,79.5C 272.655,79.8167 273.822,81.4834 273,84.5C 270.667,86.8333 268.333,89.1667 266,91.5C 264.092,94.2065 263.259,97.2065 263.5,100.5C 265.527,100.662 267.527,100.495 269.5,100C 278.133,94.2013 287.133,89.0347 296.5,84.5C 296.833,85 297.167,85.5 297.5,86C 295.473,91.9976 294.473,98.1643 294.5,104.5C 297.425,104.54 300.091,103.707 302.5,102C 314.17,92.1651 327.503,85.4984 342.5,82C 349.791,71.2524 356.958,60.4191 364,49.5C 370.946,41.5478 378.779,34.7145 387.5,29C 390.329,27.4914 393.162,27.3247 396,28.5C 396.494,30.1341 396.66,31.8008 396.5,33.5 Z M 174.5,151.5 C 174.842,152.338 175.508,152.672 176.5,152.5C 176.833,153.167 177.167,153.833 177.5,154.5C 174.573,155.757 172.239,157.757 170.5,160.5C 169.5,160.833 168.833,161.5 168.5,162.5C 166.973,162.427 165.973,163.094 165.5,164.5C 164.833,164.5 164.5,164.833 164.5,165.5C 163.222,165.782 162.222,166.449 161.5,167.5C 161.167,166.167 160.833,166.167 160.5,167.5C 160.167,167.5 159.833,167.5 159.5,167.5C 159.5,166.833 159.5,166.167 159.5,165.5C 160.906,165.027 161.573,164.027 161.5,162.5C 162.167,162.5 162.5,162.167 162.5,161.5C 163.627,160.878 164.627,160.045 165.5,159C 164.226,158.023 164.226,157.189 165.5,156.5C 167.716,153.556 170.716,151.889 174.5,151.5 Z"/></g>
<g><path style="opacity:0.004" fill="#000000" d="M 485.5,49.5 C 486.833,50.1667 486.833,50.1667 485.5,49.5 Z"/></g>
<g><path style="opacity:0.004" fill="#1b0e3b" d="M 148.5,55.5 C 147.833,55.5 147.5,55.8333 147.5,56.5C 146.957,56.44 146.624,56.1067 146.5,55.5C 147.257,54.2267 147.923,54.2267 148.5,55.5 Z"/></g>
<g><path style="opacity:0.004" fill="#181f33" d="M 498.5,64.5 C 498.5,63.8333 498.167,63.5 497.5,63.5C 497.747,61.0248 498.413,61.0248 499.5,63.5C 499.376,64.1067 499.043,64.44 498.5,64.5 Z"/></g>
<g><path style="opacity:0.008" fill="#1f0f4f" d="M 500.5,67.5 C 500.369,66.7611 500.536,66.0944 501,65.5C 501.692,66.4368 501.525,67.1034 500.5,67.5 Z"/></g>
<g><path style="opacity:0.004" fill="#000000" d="M 136.5,67.5 C 137.833,68.1667 137.833,68.1667 136.5,67.5 Z"/></g>
<g><path style="opacity:0.004" fill="#000000" d="M 502.5,68.5 C 503.833,69.1667 503.833,69.1667 502.5,68.5 Z"/></g>
<g><path style="opacity:0.004" fill="#000000" d="M 136.5,70.5 C 135.833,69.1667 135.833,69.1667 136.5,70.5 Z"/></g>
<g><path style="opacity:0.004" fill="#000000" d="M 135.5,70.5 C 134.833,71.1667 134.833,71.1667 135.5,70.5 Z"/></g>
<g><path style="opacity:0.004" fill="#000000" d="M 503.5,70.5 C 504.833,71.1667 504.833,71.1667 503.5,70.5 Z"/></g>
<g><path style="opacity:0.012" fill="#175c6c" d="M 130.5,85.5 C 130.666,90.5111 130.499,95.5111 130,100.5C 129.184,95.3158 129.35,90.3158 130.5,85.5 Z"/></g>
<g><path style="opacity:0.02" fill="#1c3d6d" d="M 508.5,84.5 C 509.833,90.1667 509.833,95.8333 508.5,101.5C 508.5,95.8333 508.5,90.1667 508.5,84.5 Z"/></g>
<g><path style="opacity:0.004" fill="#31349a" d="M 131.5,101.5 C 131.649,102.552 131.483,103.552 131,104.5C 130.26,103.251 130.427,102.251 131.5,101.5 Z"/></g>
<g><path style="opacity:0.004" fill="#000000" d="M 134.5,114.5 C 135.833,115.167 135.833,115.167 134.5,114.5 Z"/></g>
<g><path style="opacity:0.004" fill="#000000" d="M 503.5,114.5 C 504.833,115.167 504.833,115.167 503.5,114.5 Z"/></g>
<g><path style="opacity:0.004" fill="#000000" d="M 502.5,116.5 C 503.833,117.167 503.833,117.167 502.5,116.5 Z"/></g>
<g><path style="opacity:0.004" fill="#000000" d="M 501.5,118.5 C 502.833,119.167 502.833,119.167 501.5,118.5 Z"/></g>
<g><path style="opacity:0.004" fill="#240fa2" d="M 138.5,118.5 C 138.631,119.239 138.464,119.906 138,120.5C 137.308,119.563 137.475,118.897 138.5,118.5 Z"/></g>
<g><path style="opacity:0.008" fill="#007f7e" d="M 501.5,119.5 C 500.833,120.167 500.833,120.167 501.5,119.5 Z"/></g>
<g><path style="opacity:0.006" fill="#000000" d="M 499.5,120.5 C 499.833,120.5 500.167,120.5 500.5,120.5C 500.672,121.492 500.338,122.158 499.5,122.5C 499.5,121.833 499.5,121.167 499.5,120.5 Z"/></g>
<g><path style="opacity:0.008" fill="#000070" d="M 140.5,121.5 C 140.5,122.167 140.5,122.833 140.5,123.5C 139.167,122.833 139.167,122.167 140.5,121.5 Z"/></g>
<g><path style="opacity:0.008" fill="#007f7e" d="M 498.5,122.5 C 498.833,122.5 499.167,122.5 499.5,122.5C 499.315,123.17 498.981,123.17 498.5,122.5 Z"/></g>
<g><path style="opacity:0.012" fill="#005554" d="M 497.5,123.5 C 497.833,123.5 498.167,123.5 498.5,123.5C 498.315,124.17 497.981,124.17 497.5,123.5 Z"/></g>
<g><path style="opacity:0.004" fill="#000000" d="M 489.5,132.5 C 489.833,132.5 490.167,132.5 490.5,132.5C 490.315,133.17 489.981,133.17 489.5,132.5 Z"/></g>
<g><path style="opacity:0.004" fill="#000000" d="M 149.5,133.5 C 150.833,134.167 150.833,134.167 149.5,133.5 Z"/></g>
<g><path style="opacity:0.004" fill="#000000" d="M 488.5,133.5 C 488.833,133.5 489.167,133.5 489.5,133.5C 489.315,134.17 488.981,134.17 488.5,133.5 Z"/></g>
<g><path style="opacity:0.004" fill="#000000" d="M 487.5,134.5 C 487.833,134.5 488.167,134.5 488.5,134.5C 488.315,135.17 487.981,135.17 487.5,134.5 Z"/></g>
<g><path style="opacity:0.004" fill="#0000ff" d="M 155.5,137.5 C 154.833,138.167 154.833,138.167 155.5,137.5 Z"/></g>
<g><path style="opacity:0.004" fill="#000000" d="M 483.5,137.5 C 484.833,138.167 484.833,138.167 483.5,137.5 Z"/></g>
<g><path style="opacity:0.004" fill="#00d2d2" d="M 480.5,140.5 C 480.5,140.167 480.5,139.833 480.5,139.5C 483.167,139.833 483.167,140.167 480.5,140.5 Z"/></g>
<g><path style="opacity:0.012" fill="#0054aa" d="M 479.5,140.5 C 479.833,140.5 480.167,140.5 480.5,140.5C 480.315,141.17 479.981,141.17 479.5,140.5 Z"/></g>
<g><path style="opacity:0.008" fill="#00007f" d="M 471.5,146.5 C 471.833,146.5 472.167,146.5 472.5,146.5C 472.315,147.17 471.981,147.17 471.5,146.5 Z"/></g>
<g><path style="opacity:0.008" fill="#255880" d="M 469.5,148.5 C 469.5,148.167 469.5,147.833 469.5,147.5C 470.167,147.5 470.833,147.5 471.5,147.5C 471.158,148.338 470.492,148.672 469.5,148.5 Z"/></g>
<g><path style="opacity:0.008" fill="#00007f" d="M 466.5,149.5 C 466.833,149.5 467.167,149.5 467.5,149.5C 467.315,150.17 466.981,150.17 466.5,149.5 Z"/></g>
<g><path style="opacity:0.004" fill="#000000" d="M 464.5,150.5 C 465.833,151.167 465.833,151.167 464.5,150.5 Z"/></g>
<g><path style="opacity:0.99" fill="#122d47" d="M 256.5,97.5 C 248.78,104.21 240.114,109.71 230.5,114C 228,116.5 225.5,119 223,121.5C 215.968,132.255 208.468,142.588 200.5,152.5C 199.211,153.637 198.211,154.97 197.5,156.5C 196.167,157.167 195.167,158.167 194.5,159.5C 194.5,159.833 194.5,160.167 194.5,160.5C 193.167,160.833 193.167,161.167 194.5,161.5C 193.833,164.167 192.167,165.833 189.5,166.5C 189.167,165.167 188.833,165.167 188.5,166.5C 187.833,166.5 187.5,166.833 187.5,167.5C 185.46,169.177 183.46,170.844 181.5,172.5C 180.833,172.5 180.5,172.833 180.5,173.5C 179.167,173.833 179.167,174.167 180.5,174.5C 178.025,177.241 175.025,179.241 171.5,180.5C 170.833,179.167 170.167,179.167 169.5,180.5C 166.833,180.833 166.833,181.167 169.5,181.5C 168.739,182.391 167.739,183.058 166.5,183.5C 166.167,182.833 165.833,182.167 165.5,181.5C 159.798,183.287 154.465,182.62 149.5,179.5C 148.325,180.855 147.325,180.688 146.5,179C 146.966,177.701 146.966,176.201 146.5,174.5C 146.5,173.833 146.833,173.5 147.5,173.5C 152.043,176.391 157.043,177.224 162.5,176C 170.477,172.345 177.811,167.678 184.5,162C 199.021,146.819 212.021,130.486 223.5,113C 235.234,106.426 246.567,99.2594 257.5,91.5C 257.833,92.1667 258.167,92.8333 258.5,93.5C 257.775,94.8669 257.108,96.2003 256.5,97.5 Z"/></g>
<g><path style="opacity:0.004" fill="#0000ff" d="M 454.5,155.5 C 455.833,156.167 455.833,156.167 454.5,155.5 Z"/></g>
<g><path style="opacity:0.004" fill="#132b2b" d="M 452.5,157.5 C 452.5,157.167 452.5,156.833 452.5,156.5C 453.167,156.5 453.833,156.5 454.5,156.5C 454.158,157.338 453.492,157.672 452.5,157.5 Z"/></g>
<g><path style="opacity:0.012" fill="#0c4c4c" d="M 145.5,159.5 C 144.833,159.5 144.5,159.833 144.5,160.5C 144.167,160.5 143.833,160.5 143.5,160.5C 144.032,157.54 144.699,157.207 145.5,159.5 Z"/></g>
<g><path style="opacity:0.953" fill="#204669" d="M 371.5,7.5 C 373.833,8.83333 376.167,8.83333 378.5,7.5C 390.769,8.73419 402.769,11.2342 414.5,15C 413.833,15.3333 413.167,15.6667 412.5,16C 418.441,17.8186 424.441,19.3186 430.5,20.5C 432.89,22.0198 435.557,23.0198 438.5,23.5C 438.842,24.3382 439.508,24.6716 440.5,24.5C 441.167,25.8333 441.833,25.8333 442.5,24.5C 446.362,25.4281 450.029,26.9281 453.5,29C 450.833,29.6667 450.833,30.3333 453.5,31C 455.269,32.0194 456.936,32.186 458.5,31.5C 459.906,32.9507 461.406,34.2841 463,35.5C 463.333,35.1667 463.667,34.8333 464,34.5C 466.808,38.1509 470.308,39.9842 474.5,40C 477.167,42 479.833,44 482.5,46C 483.528,47.6316 484.528,49.1316 485.5,50.5C 487.55,53.4773 490.05,55.144 493,55.5C 493.617,56.4491 493.451,57.2825 492.5,58C 494.402,59.7297 496.069,61.563 497.5,63.5C 498.167,63.5 498.5,63.8333 498.5,64.5C 498.932,65.7095 499.599,66.7095 500.5,67.5C 503.346,72.5349 505.513,77.8682 507,83.5C 508.043,79.7741 508.543,80.1074 508.5,84.5C 507.167,90.1667 507.167,95.8333 508.5,101.5C 508.543,105.893 508.043,106.226 507,102.5C 505.783,107.317 504.283,111.984 502.5,116.5C 500.738,117.262 499.738,118.596 499.5,120.5C 498.662,120.842 498.328,121.508 498.5,122.5C 497.833,122.5 497.5,122.833 497.5,123.5C 496.167,123.833 496.167,124.167 497.5,124.5C 495.906,127.764 493.573,130.431 490.5,132.5C 490.167,131.167 489.833,131.167 489.5,132.5C 488.833,132.5 488.5,132.833 488.5,133.5C 487.833,133.5 487.5,133.833 487.5,134.5C 486.216,135.557 484.883,136.557 483.5,137.5C 482.29,137.932 481.29,138.599 480.5,139.5C 479.833,139.5 479.5,139.833 479.5,140.5C 478.167,140.833 478.167,141.167 479.5,141.5C 477.704,143.9 475.37,145.567 472.5,146.5C 472.167,145.167 471.833,145.167 471.5,146.5C 470.508,146.328 469.842,146.662 469.5,147.5C 468.167,147.833 468.167,148.167 469.5,148.5C 469.158,149.338 468.492,149.672 467.5,149.5C 467.167,148.167 466.833,148.167 466.5,149.5C 465.508,149.328 464.842,149.662 464.5,150.5C 463.167,150.833 463.167,151.167 464.5,151.5C 463.458,152.791 462.292,152.791 461,151.5C 460.683,153.301 460.016,153.634 459,152.5C 457.348,153.399 455.848,154.399 454.5,155.5C 453.508,155.328 452.842,155.662 452.5,156.5C 449.833,156.833 449.833,157.167 452.5,157.5C 449.291,159.934 445.624,161.601 441.5,162.5C 440.5,161.167 439.5,161.167 438.5,162.5C 437.209,162.263 436.209,162.596 435.5,163.5C 434.508,163.328 433.842,163.662 433.5,164.5C 432.209,164.263 431.209,164.596 430.5,165.5C 429.209,165.263 428.209,165.596 427.5,166.5C 426.209,166.263 425.209,166.596 424.5,167.5C 417.645,168.88 410.979,170.547 404.5,172.5C 400.5,172.833 400.5,173.167 404.5,173.5C 396.78,176.013 388.78,177.68 380.5,178.5C 377.833,177.167 375.167,177.167 372.5,178.5C 370.585,178.216 368.919,178.549 367.5,179.5C 335.5,182.167 303.5,182.167 271.5,179.5C 270.081,178.549 268.415,178.216 266.5,178.5C 263.833,177.167 261.167,177.167 258.5,178.5C 249.041,177.423 239.707,175.589 230.5,173C 231.833,172.667 233.167,172.333 234.5,172C 228.1,170.573 221.433,169.073 214.5,167.5C 212.786,166.262 210.786,165.595 208.5,165.5C 205.686,163.177 202.519,162.51 199,163.5C 197.415,162.956 195.915,162.289 194.5,161.5C 194.5,161.167 194.5,160.833 194.5,160.5C 195.833,160.167 195.833,159.833 194.5,159.5C 195.167,158.167 196.167,157.167 197.5,156.5C 258.32,178.225 320.654,183.392 384.5,172C 419.125,167.016 450.791,154.683 479.5,135C 512.426,105.211 511.426,76.5443 476.5,49C 452.586,33.3805 426.586,22.7138 398.5,17C 361.166,9.82922 323.5,7.49589 285.5,10C 253.405,13.0387 222.405,20.3721 192.5,32C 175.015,39.1586 159.848,49.6586 147,63.5C 131.03,85.2465 132.03,106.246 150,126.5C 155.108,131.614 160.775,135.948 167,139.5C 168.642,139.022 169.809,138.022 170.5,136.5C 171.167,136.833 171.833,137.167 172.5,137.5C 162.764,143.647 154.264,151.314 147,160.5C 144.859,165.011 145.025,169.344 147.5,173.5C 146.833,173.5 146.5,173.833 146.5,174.5C 146.167,174.5 145.833,174.5 145.5,174.5C 145.068,173.29 144.401,172.29 143.5,171.5C 143.5,168.833 143.5,166.167 143.5,163.5C 144.404,162.791 144.737,161.791 144.5,160.5C 145.167,160.5 145.5,160.167 145.5,159.5C 146.954,158.48 147.287,157.313 146.5,156C 147.253,154.513 148.086,154.346 149,155.5C 153.53,150.703 157.363,145.87 160.5,141C 159.675,139.312 158.675,139.145 157.5,140.5C 156.824,139.398 156.158,138.398 155.5,137.5C 153.788,134.289 151.121,132.456 147.5,132C 146.333,130.833 145.167,129.667 144,128.5C 143.383,127.551 143.549,126.718 144.5,126C 142.889,125.71 141.556,124.877 140.5,123.5C 141.833,122.833 141.833,122.167 140.5,121.5C 140.068,120.29 139.401,119.29 138.5,118.5C 135.559,112.993 133.226,107.326 131.5,101.5C 131.821,95.9738 131.488,90.6405 130.5,85.5C 130.457,81.1074 130.957,80.7741 132,84.5C 132.889,79.6022 134.389,74.9356 136.5,70.5C 139.439,68.4553 140.606,65.7886 140,62.5C 142.96,61.5593 145.46,59.5593 147.5,56.5C 148.167,56.5 148.5,56.1667 148.5,55.5C 152.042,53.177 154.375,50.3437 155.5,47C 157.095,47.6171 158.428,47.2837 159.5,46C 159.167,45.6667 158.833,45.3333 158.5,45C 160.792,43.7101 162.792,42.0435 164.5,40C 165.549,39.5078 166.549,39.6744 167.5,40.5C 168.901,39.4793 170.235,38.4793 171.5,37.5C 175.326,35.8837 178.326,33.8837 180.5,31.5C 182.836,32.0234 185.17,31.5234 187.5,30C 186.833,29.6667 186.167,29.3333 185.5,29C 188.167,27.6667 190.833,26.3333 193.5,25C 196.833,24.3333 200.167,23.6667 203.5,23C 202.5,22.6667 201.5,22.3333 200.5,22C 202.235,21.3486 203.902,21.5153 205.5,22.5C 212.343,19.8718 219.343,17.7051 226.5,16C 224.405,15.4444 224.238,14.9444 226,14.5C 226.873,14.7355 227.707,15.0688 228.5,15.5C 229.696,15.1543 229.696,14.6543 228.5,14C 240.087,10.0792 251.92,8.24589 264,8.5C 299.789,3.55663 335.623,3.22329 371.5,7.5 Z M 174.5,151.5 C 174.842,152.338 175.508,152.672 176.5,152.5C 176.833,153.167 177.167,153.833 177.5,154.5C 174.573,155.757 172.239,157.757 170.5,160.5C 169.5,160.833 168.833,161.5 168.5,162.5C 166.973,162.427 165.973,163.094 165.5,164.5C 164.833,164.5 164.5,164.833 164.5,165.5C 163.222,165.782 162.222,166.449 161.5,167.5C 161.167,166.167 160.833,166.167 160.5,167.5C 160.167,167.5 159.833,167.5 159.5,167.5C 159.5,166.833 159.5,166.167 159.5,165.5C 160.906,165.027 161.573,164.027 161.5,162.5C 162.167,162.5 162.5,162.167 162.5,161.5C 163.627,160.878 164.627,160.045 165.5,159C 164.226,158.023 164.226,157.189 165.5,156.5C 167.716,153.556 170.716,151.889 174.5,151.5 Z"/></g>
<g><path style="opacity:0.998" fill="#193652" d="M 210.5,117.5 C 212.225,117.843 212.725,118.843 212,120.5C 200.907,134.263 189.074,147.43 176.5,160C 172.186,163.824 167.519,167.157 162.5,170C 153.077,170.835 150.91,167.001 156,158.5C 164.05,149.062 173.216,140.895 183.5,134C 192.408,128.24 201.408,122.74 210.5,117.5 Z M 174.5,151.5 C 174.842,152.338 175.508,152.672 176.5,152.5C 176.833,153.167 177.167,153.833 177.5,154.5C 174.573,155.757 172.239,157.757 170.5,160.5C 169.5,160.833 168.833,161.5 168.5,162.5C 166.973,162.427 165.973,163.094 165.5,164.5C 164.833,164.5 164.5,164.833 164.5,165.5C 163.222,165.782 162.222,166.449 161.5,167.5C 161.167,166.167 160.833,166.167 160.5,167.5C 160.167,167.5 159.833,167.5 159.5,167.5C 159.5,166.833 159.5,166.167 159.5,165.5C 160.906,165.027 161.573,164.027 161.5,162.5C 162.167,162.5 162.5,162.167 162.5,161.5C 163.627,160.878 164.627,160.045 165.5,159C 164.226,158.023 164.226,157.189 165.5,156.5C 167.716,153.556 170.716,151.889 174.5,151.5 Z"/></g>
<g><path style="opacity:1" fill="#eaedf0" d="M 179.5,142.5 C 182.005,142.98 184.338,143.98 186.5,145.5C 187.359,147.539 186.526,148.872 184,149.5C 181.395,148.785 179.228,147.452 177.5,145.5C 178.193,144.482 178.859,143.482 179.5,142.5 Z"/></g>
<g><path style="opacity:1" fill="#0d3b5f" d="M 374.5,156.5 C 371.597,158.104 368.263,159.104 364.5,159.5C 365.91,161.955 368.077,162.955 371,162.5C 376.926,162.12 382.093,159.953 386.5,156C 399.075,142.688 407.909,127.188 413,109.5C 423.23,101.47 434.397,95.1363 446.5,90.5C 446.877,93.5248 447.044,96.5248 447,99.5C 440.892,101.714 435.892,105.381 432,110.5C 430.204,118.251 433.037,123.251 440.5,125.5C 439.761,125.369 439.094,125.536 438.5,126C 440.001,127.252 441.668,128.252 443.5,129C 450.5,129.667 457.5,129.667 464.5,129C 470.106,127.603 475.772,126.436 481.5,125.5C 475.548,132.28 468.548,137.78 460.5,142C 427.182,158.499 391.848,168.166 354.5,171C 301.781,175.829 250.448,169.663 200.5,152.5C 208.468,142.588 215.968,132.255 223,121.5C 225.5,119 228,116.5 230.5,114C 240.114,109.71 248.78,104.21 256.5,97.5C 256.336,100.187 256.503,102.854 257,105.5C 258.473,107.007 260.307,107.674 262.5,107.5C 270.234,105.966 277.234,102.8 283.5,98C 284.793,97.51 286.127,97.3433 287.5,97.5C 287.114,101.876 287.781,106.043 289.5,110C 296.287,111.881 301.62,109.881 305.5,104C 306.793,103.51 308.127,103.343 309.5,103.5C 309.344,111.819 313.344,114.652 321.5,112C 330.101,108.55 337.767,103.717 344.5,97.5C 347.564,102.365 351.897,104.532 357.5,104C 366.575,100.296 375.242,95.7956 383.5,90.5C 384.318,93.1071 384.818,95.7737 385,98.5C 385.465,99.9308 386.299,101.097 387.5,102C 392.194,101.662 396.861,101.828 401.5,102.5C 392.052,108.773 382.718,115.273 373.5,122C 368.966,126.199 364.799,130.699 361,135.5C 359.227,139.152 358.06,142.985 357.5,147C 359.215,156.864 364.882,160.03 374.5,156.5 Z"/></g>
<g><path style="opacity:1" fill="#cbd4dc" d="M 275.5,129.5 C 280.324,128.37 283.158,130.037 284,134.5C 282.136,131.793 279.636,130.959 276.5,132C 272.92,134.926 272.587,138.26 275.5,142C 278.466,142.895 281.133,142.395 283.5,140.5C 284.594,141.868 284.26,143.035 282.5,144C 274.068,145.703 270.568,142.203 272,133.5C 273.376,132.295 274.542,130.962 275.5,129.5 Z"/></g>
<g><path style="opacity:1" fill="#ccd4dd" d="M 319.5,129.5 C 326.382,129.887 328.882,133.553 327,140.5C 325.309,144.213 322.475,145.379 318.5,144C 318.043,143.586 317.709,143.086 317.5,142.5C 319.343,142.245 321.343,142.078 323.5,142C 324.357,141.311 325.023,140.478 325.5,139.5C 323.657,139.245 321.657,139.078 319.5,139C 315.581,135.84 315.581,132.673 319.5,129.5 Z"/></g>
<g><path style="opacity:1" fill="#c9d3db" d="M 287.5,129.5 C 291.226,129.177 294.893,129.511 298.5,130.5C 295.572,131.484 292.572,131.817 289.5,131.5C 289.5,133.167 289.5,134.833 289.5,136.5C 300.167,137.167 300.167,137.833 289.5,138.5C 289.5,139.833 289.5,141.167 289.5,142.5C 292.572,142.183 295.572,142.516 298.5,143.5C 294.893,144.489 291.226,144.823 287.5,144.5C 287.5,139.5 287.5,134.5 287.5,129.5 Z"/></g>
<g><path style="opacity:1" fill="#ccd4dc" d="M 239.5,129.5 C 243.281,128.789 246.281,129.955 248.5,133C 245.77,131.878 242.77,131.378 239.5,131.5C 239.238,132.978 239.571,134.311 240.5,135.5C 242.889,136.18 245.222,137.014 247.5,138C 248.935,140.267 248.602,142.267 246.5,144C 243.571,144.777 240.737,144.61 238,143.5C 235.923,140.455 236.423,139.955 239.5,142C 241.81,142.497 244.143,142.663 246.5,142.5C 246.67,141.178 246.337,140.011 245.5,139C 241.771,138.813 239.104,137.147 237.5,134C 237.519,132.167 238.185,130.667 239.5,129.5 Z"/></g>
<g><path style="opacity:1" fill="#ced6de" d="M 343.5,129.5 C 350.382,129.887 352.882,133.553 351,140.5C 347.667,145.833 344.333,145.833 341,140.5C 339.946,136.345 340.78,132.678 343.5,129.5 Z"/></g>
<g><path style="opacity:1" fill="#cbd4dc" d="M 256.5,129.5 C 258.017,129.511 259.184,130.177 260,131.5C 261.944,135.11 264.277,138.443 267,141.5C 267.173,137.459 267.673,133.459 268.5,129.5C 269.494,134.456 269.827,139.456 269.5,144.5C 268.178,144.67 267.011,144.337 266,143.5C 263.667,140.167 261.333,136.833 259,133.5C 258.825,137.211 258.325,140.878 257.5,144.5C 256.506,139.544 256.173,134.544 256.5,129.5 Z"/></g>
<g><path style="opacity:1" fill="#d3dbe2" d="M 328.5,129.5 C 332.167,129.5 335.833,129.5 339.5,129.5C 337.988,134.859 335.654,139.859 332.5,144.5C 332.167,144.167 331.833,143.833 331.5,143.5C 333.223,139.48 335.223,135.646 337.5,132C 334.008,132.07 331.008,131.237 328.5,129.5 Z"/></g>
<g><path style="opacity:1" fill="#1c4468" d="M 344.5,131.5 C 348.062,131.564 349.729,133.397 349.5,137C 349.748,141.656 347.748,143.156 343.5,141.5C 341.968,137.905 342.302,134.572 344.5,131.5 Z"/></g>
<g><path style="opacity:1" fill="#b4c0cc" d="M 306.5,129.5 C 308.167,129.5 309.833,129.5 311.5,129.5C 311.827,134.544 311.494,139.544 310.5,144.5C 309.508,140.217 309.174,135.884 309.5,131.5C 307.821,131.715 306.821,131.048 306.5,129.5 Z"/></g>
<g><path style="opacity:1" fill="#9faebd" d="M 251.5,129.5 C 252.809,131.571 253.475,134.071 253.5,137C 253.167,139.5 252.833,142 252.5,144.5C 251.506,139.544 251.173,134.544 251.5,129.5 Z"/></g>
<g><path style="opacity:1" fill="#103758" d="M 400.5,108.5 C 401.239,108.369 401.906,108.536 402.5,109C 396.52,119.944 390.353,130.777 384,141.5C 381.448,145.719 377.948,148.886 373.5,151C 368.107,152.608 365.107,150.608 364.5,145C 367.681,137.666 372.348,131.333 378.5,126C 386.085,120.388 393.418,114.555 400.5,108.5 Z"/></g>
<g><path style="opacity:1" fill="#0a2944" d="M 446.5,90.5 C 434.397,95.1363 423.23,101.47 413,109.5C 407.909,127.188 399.075,142.688 386.5,156C 382.093,159.953 376.926,162.12 371,162.5C 368.077,162.955 365.91,161.955 364.5,159.5C 368.263,159.104 371.597,158.104 374.5,156.5C 379.426,153.079 383.926,149.079 388,144.5C 397.026,132.783 403.692,119.783 408,105.5C 409.167,104.333 410.333,103.167 411.5,102C 421.779,95.0266 432.779,89.3599 444.5,85C 450.309,84.7914 450.975,86.6247 446.5,90.5 Z"/></g>
<g><path style="opacity:1" fill="#eef1f4" d="M 197.5,156.5 C 198.211,154.97 199.211,153.637 200.5,152.5C 250.448,169.663 301.781,175.829 354.5,171C 391.848,168.166 427.182,158.499 460.5,142C 468.548,137.78 475.548,132.28 481.5,125.5C 493.424,114.909 498.591,101.576 497,85.5C 492.581,73.0784 485.081,62.9117 474.5,55C 449.776,37.9869 422.443,26.9869 392.5,22C 337.541,12.187 282.874,13.5203 228.5,26C 203.926,32.1213 181.593,42.788 161.5,58C 151.881,65.7531 145.714,75.5864 143,87.5C 141.723,98.0593 144.057,107.726 150,116.5C 156.066,124.068 162.9,130.734 170.5,136.5C 169.809,138.022 168.642,139.022 167,139.5C 160.775,135.948 155.108,131.614 150,126.5C 132.03,106.246 131.03,85.2465 147,63.5C 159.848,49.6586 175.015,39.1586 192.5,32C 222.405,20.3721 253.405,13.0387 285.5,10C 323.5,7.49589 361.166,9.82922 398.5,17C 426.586,22.7138 452.586,33.3805 476.5,49C 511.426,76.5443 512.426,105.211 479.5,135C 450.791,154.683 419.125,167.016 384.5,172C 320.654,183.392 258.32,178.225 197.5,156.5 Z"/></g>
<g><path style="opacity:1" fill="#1b4467" d="M 319.5,131.5 C 324.159,131.015 325.492,132.848 323.5,137C 318.728,137.81 317.395,135.977 319.5,131.5 Z"/></g>
<g><path style="opacity:1" fill="#0c3b5f" d="M 481.5,125.5 C 475.772,126.436 470.106,127.603 464.5,129C 457.5,129.667 450.5,129.667 443.5,129C 441.668,128.252 440.001,127.252 438.5,126C 439.094,125.536 439.761,125.369 440.5,125.5C 452.758,125.707 464.591,123.707 476,119.5C 476.965,116.637 476.298,114.304 474,112.5C 463.113,118.509 451.613,120.343 439.5,118C 436.552,114.073 437.218,110.739 441.5,108C 447.669,104.539 454.335,102.539 461.5,102C 462.833,100.667 462.833,99.3333 461.5,98C 454.24,97.4202 452.74,94.2536 457,88.5C 463.655,83.6259 471.155,81.4592 479.5,82C 480.833,80 480.833,78 479.5,76C 469.726,75.1435 460.059,75.8102 450.5,78C 440.286,81.4419 430.619,85.9419 421.5,91.5C 420.833,91.3333 420.167,91.1667 419.5,91C 422.129,88.2096 424.129,85.043 425.5,81.5C 425.471,79.9707 424.804,78.804 423.5,78C 412.703,73.1626 402.037,73.4959 391.5,79C 384.346,84.7466 376.679,89.7466 368.5,94C 364.583,95.4727 360.583,96.6394 356.5,97.5C 355.228,97.4302 354.062,97.0968 353,96.5C 352.227,94.6476 352.727,93.3143 354.5,92.5C 354.5,93.8333 354.5,95.1667 354.5,96.5C 356.144,96.7135 357.644,96.3802 359,95.5C 371.383,80.1181 383.383,64.4514 395,48.5C 398.262,43.9762 400.429,38.9762 401.5,33.5C 401.821,30.488 400.488,29.1547 397.5,29.5C 397.768,31.099 397.434,32.4324 396.5,33.5C 396.66,31.8008 396.494,30.1341 396,28.5C 393.162,27.3247 390.329,27.4914 387.5,29C 378.779,34.7145 370.946,41.5478 364,49.5C 356.958,60.4191 349.791,71.2524 342.5,82C 327.503,85.4984 314.17,92.1651 302.5,102C 300.091,103.707 297.425,104.54 294.5,104.5C 294.473,98.1643 295.473,91.9976 297.5,86C 297.167,85.5 296.833,85 296.5,84.5C 287.133,89.0347 278.133,94.2013 269.5,100C 267.527,100.495 265.527,100.662 263.5,100.5C 263.259,97.2065 264.092,94.2065 266,91.5C 268.333,89.1667 270.667,86.8333 273,84.5C 273.822,81.4834 272.655,79.8167 269.5,79.5C 257.114,87.0451 245.114,95.2118 233.5,104C 232.668,104.688 232.002,104.521 231.5,103.5C 238.188,95.9801 244.688,88.3134 251,80.5C 258.377,71.5889 262.543,61.4222 263.5,50C 263.896,43.7928 261.229,39.4595 255.5,37C 215.997,37.5044 182.164,51.671 154,79.5C 148.866,86.5588 149.366,93.0588 155.5,99C 171.898,107.41 189.232,112.91 207.5,115.5C 195.838,122.826 184.172,130.159 172.5,137.5C 171.833,137.167 171.167,136.833 170.5,136.5C 162.9,130.734 156.066,124.068 150,116.5C 144.057,107.726 141.723,98.0593 143,87.5C 145.714,75.5864 151.881,65.7531 161.5,58C 181.593,42.788 203.926,32.1213 228.5,26C 282.874,13.5203 337.541,12.187 392.5,22C 422.443,26.9869 449.776,37.9869 474.5,55C 485.081,62.9117 492.581,73.0784 497,85.5C 498.591,101.576 493.424,114.909 481.5,125.5 Z"/></g>
<g><path style="opacity:1" fill="#0f314f" d="M 333.5,89.5 C 335.833,89.5 338.167,89.5 340.5,89.5C 340.649,90.552 340.483,91.552 340,92.5C 333.87,98.8114 326.703,103.478 318.5,106.5C 317.558,106.392 316.725,106.059 316,105.5C 315.333,103.5 315.333,101.5 316,99.5C 320.946,94.4485 326.779,91.1152 333.5,89.5 Z"/></g>
<g><path style="opacity:1" fill="#153a5b" d="M 405.5,79.5 C 408.607,79.3512 411.607,79.8512 414.5,81C 415.749,83.2096 415.582,85.3763 414,87.5C 407.883,94.6631 400.55,96.9964 392,94.5C 391.333,92.5 391.333,90.5 392,88.5C 395.826,84.3476 400.326,81.3476 405.5,79.5 Z"/></g>
<g><path style="opacity:1" fill="#0c3a5e" d="M 233.5,44.5 C 238.93,44.161 244.264,44.661 249.5,46C 250.667,47.1667 251.833,48.3333 253,49.5C 253.667,53.5 253.667,57.5 253,61.5C 244.574,80.2446 232.741,96.4113 217.5,110C 212.833,110.667 208.167,110.667 203.5,110C 193.934,107.015 184.267,104.349 174.5,102C 168.846,100.089 163.68,97.2557 159,93.5C 157.96,89.4672 158.626,85.8005 161,82.5C 173.853,68.4902 189.353,58.6569 207.5,53C 216.227,50.0347 224.894,47.2014 233.5,44.5 Z"/></g>
<g><path style="opacity:1" fill="#10304d" d="M 384.5,36.5 C 386.344,37.2039 386.844,38.5372 386,40.5C 377.035,55.4691 366.535,69.3024 354.5,82C 352.783,83.5588 350.783,84.3921 348.5,84.5C 348.799,80.8945 349.965,77.5612 352,74.5C 361.229,60.4393 372.063,47.7726 384.5,36.5 Z"/></g>
<g><path style="opacity:1" fill="#0a2944" d="M 354.5,92.5 C 366.477,77.0121 378.31,61.3455 390,45.5C 392.027,41.3369 394.194,37.3369 396.5,33.5C 397.434,32.4324 397.768,31.099 397.5,29.5C 400.488,29.1547 401.821,30.488 401.5,33.5C 400.429,38.9762 398.262,43.9762 395,48.5C 383.383,64.4514 371.383,80.1181 359,95.5C 357.644,96.3802 356.144,96.7135 354.5,96.5C 354.5,95.1667 354.5,93.8333 354.5,92.5 Z"/></g>
<g><path style="opacity:0.012" fill="#194460" d="M 438.5,163.5 C 438.5,163.167 438.5,162.833 438.5,162.5C 439.5,162.5 440.5,162.5 441.5,162.5C 440.791,163.404 439.791,163.737 438.5,163.5 Z"/></g>
<g><path style="opacity:0.012" fill="#18344a" d="M 143.5,160.5 C 143.5,161.5 143.5,162.5 143.5,163.5C 142.527,165.948 142.194,168.615 142.5,171.5C 140.332,167.757 140.666,164.09 143.5,160.5 Z"/></g>
<g><path style="opacity:0.016" fill="#185a8c" d="M 435.5,164.5 C 435.5,164.167 435.5,163.833 435.5,163.5C 436.5,163.5 437.5,163.5 438.5,163.5C 437.791,164.404 436.791,164.737 435.5,164.5 Z"/></g>
<g><path style="opacity:0.008" fill="#145353" d="M 433.5,165.5 C 433.5,165.167 433.5,164.833 433.5,164.5C 434.167,164.5 434.833,164.5 435.5,164.5C 435.158,165.338 434.492,165.672 433.5,165.5 Z"/></g>
<g><path style="opacity:0.008" fill="#2d4b7c" d="M 208.5,165.5 C 207.749,166.573 206.749,166.74 205.5,166C 206.448,165.517 207.448,165.351 208.5,165.5 Z"/></g>
<g><path style="opacity:0.008" fill="#2d4b7c" d="M 430.5,166.5 C 430.5,166.167 430.5,165.833 430.5,165.5C 431.5,165.5 432.5,165.5 433.5,165.5C 432.791,166.404 431.791,166.737 430.5,166.5 Z"/></g>
<g><path style="opacity:0.004" fill="#000000" d="M 188.5,166.5 C 188.833,166.5 189.167,166.5 189.5,166.5C 189.315,167.17 188.981,167.17 188.5,166.5 Z"/></g>
<g><path style="opacity:0.008" fill="#267b4f" d="M 427.5,167.5 C 427.5,167.167 427.5,166.833 427.5,166.5C 428.5,166.5 429.5,166.5 430.5,166.5C 429.791,167.404 428.791,167.737 427.5,167.5 Z"/></g>
<g><path style="opacity:0.004" fill="#000000" d="M 187.5,167.5 C 187.833,167.5 188.167,167.5 188.5,167.5C 188.315,168.17 187.981,168.17 187.5,167.5 Z"/></g>
<g><path style="opacity:0.004" fill="#241177" d="M 214.5,167.5 C 213.749,168.573 212.749,168.74 211.5,168C 212.448,167.517 213.448,167.351 214.5,167.5 Z"/></g>
<g><path style="opacity:0.008" fill="#15083f" d="M 424.5,167.5 C 425.5,167.5 426.5,167.5 427.5,167.5C 426.5,168.833 425.5,168.833 424.5,167.5 Z"/></g>
<g><path style="opacity:0.004" fill="#000000" d="M 215.5,168.5 C 216.833,169.167 216.833,169.167 215.5,168.5 Z"/></g>
<g><path style="opacity:0.004" fill="#000000" d="M 422.5,168.5 C 423.833,169.167 423.833,169.167 422.5,168.5 Z"/></g>
<g><path style="opacity:0.008" fill="#006868" d="M 142.5,171.5 C 142.833,171.5 143.167,171.5 143.5,171.5C 143.167,174.167 142.833,174.167 142.5,171.5 Z"/></g>
<g><path style="opacity:0.008" fill="#000000" d="M 181.5,172.5 C 182.833,173.167 182.833,173.167 181.5,172.5 Z"/></g>
<g><path style="opacity:0.004" fill="#24315a" d="M 404.5,173.5 C 404.5,173.167 404.5,172.833 404.5,172.5C 409.833,172.833 409.833,173.167 404.5,173.5 Z"/></g>
<g><path style="opacity:0.004" fill="#000000" d="M 180.5,173.5 C 180.833,173.5 181.167,173.5 181.5,173.5C 181.315,174.17 180.981,174.17 180.5,173.5 Z"/></g>
<g><path style="opacity:0.016" fill="#09222b" d="M 145.5,174.5 C 145.649,175.552 145.483,176.552 145,177.5C 144.26,176.251 144.427,175.251 145.5,174.5 Z"/></g>
<g><path style="opacity:0.004" fill="#1d2e4d" d="M 258.5,178.5 C 261.167,178.5 263.833,178.5 266.5,178.5C 267.919,179.451 269.585,179.784 271.5,179.5C 279.161,180.555 286.827,181.555 294.5,182.5C 282.199,182.605 270.199,181.271 258.5,178.5 Z"/></g>
<g><path style="opacity:0.008" fill="#000070" d="M 169.5,181.5 C 169.5,181.167 169.5,180.833 169.5,180.5C 170.167,180.5 170.833,180.5 171.5,180.5C 171.158,181.338 170.492,181.672 169.5,181.5 Z"/></g>
<g><path style="opacity:0.005" fill="#1b334b" d="M 372.5,178.5 C 375.167,178.5 377.833,178.5 380.5,178.5C 368.801,181.271 356.801,182.605 344.5,182.5C 352.183,181.652 359.85,180.652 367.5,179.5C 369.415,179.784 371.081,179.451 372.5,178.5 Z"/></g>
<g><path style="opacity:0.004" fill="#000000" d="M 151.5,182.5 C 152.833,183.167 152.833,183.167 151.5,182.5 Z"/></g>
<g><path style="opacity:0.004" fill="#22156e" d="M 294.5,182.5 C 299.179,182.334 303.845,182.501 308.5,183C 303.648,183.815 298.981,183.648 294.5,182.5 Z"/></g>
<g><path style="opacity:0.008" fill="#1d1656" d="M 344.5,182.5 C 340.019,183.648 335.352,183.815 330.5,183C 335.155,182.501 339.821,182.334 344.5,182.5 Z"/></g>
<g><path style="opacity:0.005" fill="#000000" d="M 153.5,184.5 C 154.251,183.427 155.251,183.26 156.5,184C 155.552,184.483 154.552,184.649 153.5,184.5 Z"/></g>
<g><path style="opacity:0.004" fill="#080111" d="M 159.5,184.5 C 160.946,183.387 162.613,183.22 164.5,184C 162.866,184.494 161.199,184.66 159.5,184.5 Z"/></g>
<g><path style="opacity:0.004" fill="#000000" d="M 316.5,184.5 C 318.288,183.378 320.288,183.211 322.5,184C 320.527,184.495 318.527,184.662 316.5,184.5 Z"/></g>
</svg>
